<?xml version="1.0" encoding="UTF-8" standalone="no"?>
<!DOCTYPE svg PUBLIC "-//W3C//DTD SVG 1.1//EN" "http://www.w3.org/Graphics/SVG/1.1/DTD/svg11.dtd">
<svg width="100%" height="100%" viewBox="0 0 250 250" version="1.1" xmlns="http://www.w3.org/2000/svg" xmlns:xlink="http://www.w3.org/1999/xlink" xml:space="preserve" xmlns:serif="http://www.serif.com/" style="fill-rule:evenodd;clip-rule:evenodd;stroke-linejoin:round;stroke-miterlimit:2;">
    <g transform="matrix(1,0,0,1,178.895,26.3945)">
        <path d="M0,0C2.664,2.031 3.805,4.181 5.418,7.105C8.102,11.839 10.012,13.456 15.23,15.043C16.26,15.312 17.29,15.582 18.352,15.859C21.755,16.781 23.809,17.913 26.105,20.605C26.918,23.855 26.918,23.855 27.105,26.605C22.196,27.307 18.281,27.731 13.418,26.73C11.201,26.331 11.201,26.331 9.105,26.605C7.222,28.142 5.99,29.779 4.586,31.758C2.971,33.773 1.572,34.677 -0.707,35.855C-4.165,37.284 -4.165,37.284 -4.895,40.605C-3.575,41.265 -2.255,41.925 -0.895,42.605L-0.895,44.605C-0.3,44.656 0.294,44.706 0.906,44.758C5.01,46.34 6.065,50.683 7.84,54.465C9.921,59.63 10.732,63.579 9.043,69.043C8.717,72.631 8.717,72.631 10.98,74.691C12.745,76.225 14.53,77.734 16.332,79.223C27.566,88.875 35.186,103.903 37.105,118.605C37.391,125.023 37.582,131.322 36.105,137.605L34.105,137.605C34.044,138.162 33.982,138.719 33.918,139.293C32.761,142.587 30.622,144.201 28.105,146.605C23.758,151.145 20.018,155.146 20.148,161.805C20.35,164.107 20.686,166.334 21.105,168.605C21.27,169.554 21.435,170.503 21.605,171.48C23.754,174.524 26.303,174.972 29.816,175.93C32.084,176.599 34.026,177.49 36.105,178.605C37.125,185.063 33.73,189.579 30.105,194.605C24.486,200.372 16.912,202.094 9.105,202.605C8.239,202.358 7.373,202.11 6.48,201.855C5.697,201.773 4.913,201.69 4.105,201.605C2.72,202.754 1.343,203.914 0.02,205.133C-11.056,213.654 -27.462,214.991 -40.895,213.605C-44.604,212.929 -48.238,211.992 -51.883,211.033C-56.805,209.764 -61.095,209.389 -66.141,209.574C-72.285,209.644 -79.827,209.722 -85.023,206.137C-86.122,205.056 -87.207,203.963 -88.277,202.855C-90.872,200.85 -93.226,201.422 -96.375,201.637C-104.748,201.533 -113.693,197.087 -119.895,191.605L-119.895,189.605C-120.778,189.25 -120.778,189.25 -121.68,188.887C-130.057,184.041 -135.524,170.201 -138.273,161.223C-140.744,150.812 -141.12,140.066 -141.582,129.418C-141.631,128.331 -141.679,127.243 -141.729,126.123C-141.767,125.092 -141.805,124.062 -141.844,123C-141.878,122.081 -141.913,121.161 -141.948,120.214C-141.893,117.53 -141.624,115.19 -140.895,112.605C-138.597,111.457 -137.072,111.474 -134.52,111.355C-130.786,111.002 -130.173,110.898 -127.457,108.043C-126.941,107.239 -126.426,106.434 -125.895,105.605L-123.895,105.605C-123.4,104.12 -123.4,104.12 -122.895,102.605C-114.938,95.059 -103.366,86.605 -91.895,86.605L-91.895,84.605C-92.73,84.296 -92.73,84.296 -93.582,83.98C-99.085,80.709 -101.632,75.927 -103.395,69.969C-104.993,62.412 -103.913,55.559 -100.395,48.668C-99.9,47.987 -99.405,47.307 -98.895,46.605L-96.895,46.605C-96.565,45.615 -96.235,44.625 -95.895,43.605C-94.207,42.668 -94.207,42.668 -91.895,42.605C-89.047,44.233 -86.626,45.813 -84.395,48.23C-82.195,50.246 -79.721,50.789 -76.895,51.605L-76.895,53.605C-61.431,53.379 -42.655,50.631 -30.895,39.605C-28.848,35.513 -29.693,30.992 -30.895,26.73C-32.98,18.96 -32.082,12.91 -28.895,5.605L-26.895,5.605L-26.895,3.605L-24.895,3.605L-24.895,1.605C-16.341,-2.924 -8.993,-4.288 0,0Z" style="fill:rgb(215,99,65);fill-rule:nonzero;"/>
    </g>
    <g transform="matrix(1,0,0,1,125,148)">
        <path d="M0,0C3.945,0.478 6.59,1.82 9.863,4.063C18.318,7.772 32.451,7.392 41.285,5.176C44.847,3.765 47.811,2.126 51,0L54,0C55.5,2.125 55.5,2.125 57,5C57.737,6.348 57.737,6.348 58.488,7.723C62.332,16.055 63.479,25.899 63,35C61.889,35.037 60.778,35.075 59.633,35.113C51.348,35.456 43.826,36.012 36,39C34.515,39.495 34.515,39.495 33,40L33,43C33.545,42.723 34.091,42.446 34.652,42.16C43.718,37.806 52.075,37.833 62,38C65.065,51.122 65.368,63.925 59,76L56,76C55.78,76.597 55.559,77.194 55.332,77.809C51.758,83.689 42.403,86.129 36.063,87.875C30.139,89.071 24.275,89.342 18.25,89.438C17.375,89.46 16.5,89.482 15.598,89.505C9.965,89.485 6.182,88.363 1.162,85.88C-2.352,84.45 -5.586,84.695 -9.313,84.938C-16.392,85.152 -23.466,85.093 -30,82C-30.934,80.72 -30.934,80.72 -31.887,79.414C-33.832,76.668 -33.832,76.668 -37.25,76.504C-38.487,76.523 -39.725,76.543 -41,76.563C-48.754,76.457 -54.355,74.047 -61,70L-61,68C-62.65,67.34 -64.3,66.68 -66,66L-66,64C-66.99,63.67 -67.98,63.34 -69,63L-69,61C-68.112,60.654 -68.112,60.654 -67.207,60.301C-62.036,58.166 -58.763,56.105 -55,52L-53,52C-52.711,51.402 -52.423,50.804 -52.125,50.188C-51,48 -51,48 -49,45L-47,45C-46.67,42.69 -46.34,40.38 -46,38C-45.264,37.939 -44.528,37.879 -43.77,37.816C-42.794,37.733 -41.818,37.649 -40.813,37.563C-39.85,37.481 -38.887,37.4 -37.895,37.316C-35.214,37.023 -32.634,36.573 -30,36L-30,38C-30.99,38.33 -31.98,38.66 -33,39C-33.495,39.99 -33.495,39.99 -34,41C-33.282,40.795 -32.564,40.59 -31.824,40.379C-17.19,36.57 -1.579,35.231 13,40C13.33,40.66 13.66,41.32 14,42C16.025,42.652 16.025,42.652 18,43L18,40C2.526,36.012 -10.052,34.465 -26,36L-26,33C-24.147,31.868 -22.292,30.741 -20.422,29.637C-11.628,23.694 -3.032,14.488 -0.625,3.938C-0.419,2.638 -0.213,1.339 0,0Z" style="fill:rgb(239,150,114);fill-rule:nonzero;"/>
    </g>
    <g transform="matrix(1,0,0,1,178.895,26.3945)">
        <path d="M0,0C2.664,2.031 3.805,4.181 5.418,7.105C8.102,11.839 10.012,13.456 15.23,15.043C16.26,15.312 17.29,15.582 18.352,15.859C21.755,16.781 23.809,17.913 26.105,20.605C26.918,23.855 26.918,23.855 27.105,26.605C22.196,27.307 18.281,27.731 13.418,26.73C11.201,26.331 11.201,26.331 9.105,26.605C7.222,28.142 5.99,29.779 4.586,31.758C2.971,33.773 1.572,34.677 -0.707,35.855C-4.165,37.284 -4.165,37.284 -4.895,40.605C-3.575,41.265 -2.255,41.925 -0.895,42.605L-0.895,44.605C-0.3,44.656 0.294,44.706 0.906,44.758C5.01,46.34 6.065,50.683 7.84,54.465C9.921,59.63 10.732,63.579 9.043,69.043C8.717,72.631 8.717,72.631 10.98,74.691C12.745,76.225 14.53,77.734 16.332,79.223C27.566,88.875 35.186,103.903 37.105,118.605C37.391,125.023 37.582,131.322 36.105,137.605L34.105,137.605C34.044,138.162 33.982,138.719 33.918,139.293C32.761,142.587 30.622,144.201 28.105,146.605C23.758,151.145 20.018,155.146 20.148,161.805C20.35,164.107 20.686,166.334 21.105,168.605C21.27,169.554 21.435,170.503 21.605,171.48C23.754,174.524 26.303,174.972 29.816,175.93C32.084,176.599 34.026,177.49 36.105,178.605C37.125,185.063 33.73,189.579 30.105,194.605C24.486,200.372 16.912,202.094 9.105,202.605C8.239,202.358 7.373,202.11 6.48,201.855C5.697,201.773 4.913,201.69 4.105,201.605C2.72,202.754 1.343,203.914 0.02,205.133C-11.056,213.654 -27.462,214.991 -40.895,213.605C-44.604,212.929 -48.238,211.992 -51.883,211.033C-56.805,209.764 -61.095,209.389 -66.141,209.574C-72.285,209.644 -79.827,209.722 -85.023,206.137C-86.122,205.056 -87.207,203.963 -88.277,202.855C-90.872,200.85 -93.226,201.422 -96.375,201.637C-104.748,201.533 -113.693,197.087 -119.895,191.605L-119.895,189.605C-120.778,189.25 -120.778,189.25 -121.68,188.887C-130.057,184.041 -135.524,170.201 -138.273,161.223C-140.744,150.812 -141.12,140.066 -141.582,129.418C-141.631,128.331 -141.679,127.243 -141.729,126.123C-141.767,125.092 -141.805,124.062 -141.844,123C-141.878,122.081 -141.913,121.161 -141.948,120.214C-141.893,117.53 -141.624,115.19 -140.895,112.605C-138.597,111.457 -137.072,111.474 -134.52,111.355C-130.786,111.002 -130.173,110.898 -127.457,108.043C-126.941,107.239 -126.426,106.434 -125.895,105.605L-123.895,105.605C-123.4,104.12 -123.4,104.12 -122.895,102.605C-114.938,95.059 -103.366,86.605 -91.895,86.605L-91.895,84.605C-92.73,84.296 -92.73,84.296 -93.582,83.98C-99.085,80.709 -101.632,75.927 -103.395,69.969C-104.993,62.412 -103.913,55.559 -100.395,48.668C-99.9,47.987 -99.405,47.307 -98.895,46.605L-96.895,46.605C-96.565,45.615 -96.235,44.625 -95.895,43.605C-94.207,42.668 -94.207,42.668 -91.895,42.605C-89.047,44.233 -86.626,45.813 -84.395,48.23C-82.195,50.246 -79.721,50.789 -76.895,51.605L-76.895,53.605C-61.431,53.379 -42.655,50.631 -30.895,39.605C-28.848,35.513 -29.693,30.992 -30.895,26.73C-32.98,18.96 -32.082,12.91 -28.895,5.605L-26.895,5.605L-26.895,3.605L-24.895,3.605L-24.895,1.605C-16.341,-2.924 -8.993,-4.288 0,0ZM-42.895,60.605C-43.289,66.012 -42.801,71.28 -41.895,76.605C-43.215,76.275 -44.535,75.945 -45.895,75.605C-46.885,71.645 -46.885,71.645 -47.895,67.605C-62.281,70.924 -62.281,70.924 -75.805,76.637C-79.033,78.133 -82.433,78.897 -85.891,79.699C-88.074,80.415 -88.074,80.415 -88.734,82.566C-89.054,84.672 -89.054,84.672 -88.02,86.73C-86.382,90.914 -86.223,95.151 -85.895,99.605C-86.512,99.776 -87.129,99.946 -87.766,100.121C-93.747,101.833 -99.259,103.969 -104.895,106.605C-103.905,110.565 -102.915,114.525 -101.895,118.605C-94.111,118.274 -88.692,114.403 -83.27,108.98C-80.376,106.087 -77.501,104.515 -73.895,102.605L-73.895,100.605L-62.895,100.605L-62.895,104.605C-63.703,104.559 -64.511,104.513 -65.344,104.465C-72.037,104.13 -72.037,104.13 -78.145,106.48C-80.106,108.404 -80.106,108.404 -79.895,110.605C-80.451,110.667 -81.008,110.729 -81.582,110.793C-84.885,111.954 -86.613,114.008 -88.895,116.605L-88.895,118.605C-89.451,118.729 -90.008,118.853 -90.582,118.98C-92.949,119.543 -92.949,119.543 -95.207,120.73C-98.797,121.899 -101.251,121.483 -104.895,120.605C-106.707,119.043 -106.707,119.043 -107.895,117.605L-109.895,117.605C-110.225,116.615 -110.555,115.625 -110.895,114.605L-112.895,114.605L-112.895,110.605C-114.38,110.11 -114.38,110.11 -115.895,109.605L-115.895,105.605C-114.41,106.1 -114.41,106.1 -112.895,106.605C-112.42,107.575 -111.946,108.544 -111.457,109.543C-110.068,113.013 -110.068,113.013 -105.895,114.605C-106.225,110.975 -106.555,107.345 -106.895,103.605C-103.925,102.945 -100.955,102.285 -97.895,101.605L-97.895,99.605C-96.224,99.42 -96.224,99.42 -94.52,99.23C-90.863,98.959 -90.863,98.959 -88.895,96.605C-88.728,93.022 -88.728,93.022 -88.895,89.605C-99.586,89.437 -109.034,94.558 -116.895,101.605L-116.895,103.605C-117.451,103.832 -118.008,104.059 -118.582,104.293C-122.094,106.286 -125.075,108.967 -126.895,112.605C-129.398,113.238 -129.398,113.238 -132.457,113.73C-133.975,113.982 -133.975,113.982 -135.523,114.238C-136.306,114.359 -137.088,114.481 -137.895,114.605C-137.97,118.746 -138.024,122.885 -138.059,127.026C-138.074,128.427 -138.094,129.828 -138.121,131.229C-138.365,144.527 -136.972,157.202 -131.582,169.543C-131.281,170.253 -130.98,170.963 -130.669,171.695C-128.37,176.935 -125.782,181.356 -121.895,185.605L-119.895,185.605C-119.565,186.595 -119.235,187.585 -118.895,188.605C-116.879,189.339 -116.879,189.339 -114.895,189.605L-114.895,191.605C-106.729,196.578 -100.512,198.256 -91.145,198.109C-87.895,198.605 -87.895,198.605 -85.781,201.02C-84.847,202.3 -84.847,202.3 -83.895,203.605C-76.781,206.972 -68.82,206.908 -61.122,206.407C-56.98,206.232 -54.253,206.733 -50.516,208.582C-45.506,211.018 -41.149,211.184 -35.645,211.043C-34.724,211.028 -33.803,211.014 -32.854,210.999C-20.888,210.669 -6.761,208.472 2.105,199.605C4.434,199.428 6.77,199.338 9.105,199.293C15.915,199.01 21.556,197.723 27.105,193.605C29.525,190.964 29.525,190.964 30.105,187.605L32.105,187.605C32.435,185.295 32.765,182.985 33.105,180.605C31.858,180.025 31.858,180.025 30.586,179.434C29.499,178.913 28.413,178.392 27.293,177.855C25.675,177.09 25.675,177.09 24.023,176.309C21.027,174.56 19.627,173.696 18.105,170.605C17.864,167.87 17.776,165.391 17.855,162.668C17.861,161.965 17.866,161.262 17.871,160.537C17.927,156.783 18.22,153.255 19.105,149.605L21.105,149.605L21.105,147.605L23.105,147.605C24.97,146 26.497,144.449 28.105,142.605C28.653,142.009 29.201,141.412 29.766,140.797C35.25,133.938 35.022,127.081 34.105,118.605C33.426,115.108 32.405,111.918 31.105,108.605C30.815,107.799 30.525,106.992 30.227,106.16C26.984,97.504 23.198,88.74 16.105,82.605C15.549,82.007 14.992,81.409 14.418,80.793C13.153,79.382 13.153,79.382 11.105,79.605L11.105,77.605C9.785,77.275 8.465,76.945 7.105,76.605L7.105,74.605L5.105,74.605C4.775,73.945 4.445,73.285 4.105,72.605C3.322,73.265 2.538,73.925 1.73,74.605C-0.895,76.605 -0.895,76.605 -2.895,76.605C-3.895,75.605 -4.895,74.605 -5.895,73.605C-11.944,69.179 -35.95,53.661 -42.895,60.605Z" style="fill:rgb(105,93,89);fill-rule:nonzero;"/>
    </g>
    <g transform="matrix(1,0,0,1,138.758,85.9102)">
        <path d="M0,0C10.037,0.646 19.792,4.746 28.242,10.09C28.969,10.524 29.696,10.959 30.445,11.406C31.121,11.817 31.796,12.229 32.492,12.652C33.178,13.066 33.864,13.48 34.57,13.906C36.242,15.09 36.242,15.09 37.242,17.09C40.214,15.965 42.577,14.867 45.242,13.09L45.242,15.09L47.242,15.09L47.242,17.09C49.222,17.585 49.222,17.585 51.242,18.09L51.242,20.09C51.82,20.317 52.397,20.544 52.992,20.777C55.806,22.419 57.27,24.525 59.242,27.09C59.902,27.42 60.562,27.75 61.242,28.09C65.832,35.264 69.256,43.135 72.242,51.09C72.491,51.752 72.74,52.415 72.996,53.098C75.244,60.359 76.021,69.835 73.074,76.883C71.602,79.142 70.064,81.105 68.242,83.09C67.767,83.635 67.291,84.18 66.801,84.742C65.492,86.152 65.492,86.152 63.242,88.09L61.242,88.09L61.242,90.09L59.242,90.09C59.078,91.047 59.078,91.047 58.91,92.023C58.752,92.85 58.593,93.676 58.43,94.527C58.279,95.351 58.128,96.175 57.973,97.023C57.732,97.705 57.491,98.387 57.242,99.09C55.757,99.585 55.757,99.585 54.242,100.09C53.582,99.76 52.922,99.43 52.242,99.09C51.838,96.097 51.541,93.159 51.305,90.152C50.325,79.718 48.983,71.669 42.449,63.195C40.993,60.655 41.016,58.971 41.242,56.09C40.582,55.76 39.922,55.43 39.242,55.09C39.572,54.1 39.902,53.11 40.242,52.09L42.242,52.09C42.271,48.944 42.289,45.798 42.305,42.652C42.317,41.306 42.317,41.306 42.33,39.932C42.335,38.651 42.335,38.651 42.34,37.344C42.348,36.158 42.348,36.158 42.356,34.948C42.447,33.074 42.447,33.074 41.242,32.09C41.202,30.424 41.199,28.756 41.242,27.09L39.242,27.09C38.84,26.162 38.84,26.162 38.43,25.215C37.287,22.79 37.287,22.79 34.242,21.09C34.283,22.369 34.325,23.647 34.367,24.965C34.342,32.965 33.264,39.728 28.242,46.09C26.757,45.595 26.757,45.595 25.242,45.09C25.531,44.47 25.82,43.85 26.117,43.211C29.416,35.341 30.538,27.578 29.242,19.09C27.073,15.034 25.233,12.552 20.992,10.715C20.286,10.398 19.579,10.081 18.852,9.754C18.055,9.425 18.055,9.425 17.242,9.09C17.737,10.42 17.737,10.42 18.242,11.777C20.679,20.436 20.252,30.956 16.242,39.09C13.242,41.09 13.242,41.09 10.242,41.09L10.242,38.09C10.923,37.502 10.923,37.502 11.617,36.902C17.313,30.55 15.416,19.032 15.242,11.09L13.242,11.09C12.747,9.11 12.747,9.11 12.242,7.09L10.242,7.09L10.242,5.09C5.292,4.595 5.292,4.595 0.242,4.09C0.593,5.575 0.943,7.06 1.305,8.59C2.296,13.454 2.142,17.231 1.242,22.09L-0.758,22.09C-0.772,22.696 -0.786,23.302 -0.801,23.926C-1.194,30.826 -2.877,36.324 -6.758,42.09C-9.258,44.09 -9.258,44.09 -11.758,45.09C-13.15,45.678 -13.15,45.678 -14.57,46.277C-15.292,46.545 -16.014,46.814 -16.758,47.09C-17.686,46.131 -17.686,46.131 -18.633,45.152C-21.849,42.03 -23.999,41.884 -28.383,41.527C-29.386,41.444 -30.389,41.36 -31.422,41.273C-32.193,41.213 -32.964,41.152 -33.758,41.09L-33.758,43.09C-35.442,44.261 -37.183,45.352 -38.945,46.402C-43.116,48.97 -46.339,51.576 -49.758,55.09C-53.873,58.032 -56.527,59.09 -61.758,59.09C-62.748,55.13 -63.738,51.17 -64.758,47.09C-58.429,44.084 -52.616,41.513 -45.758,40.09C-46.068,37.839 -46.381,35.59 -46.695,33.34C-46.869,32.087 -47.043,30.834 -47.223,29.543C-47.618,26.99 -48.062,24.571 -48.758,22.09C-44.425,19.695 -40.163,18.23 -35.418,16.934C-32.742,16.085 -30.229,15.001 -27.66,13.875C-24.326,12.499 -20.891,11.459 -17.445,10.402C-16.731,10.177 -16.016,9.952 -15.279,9.721C-10.02,8.09 -10.02,8.09 -7.758,8.09C-7.098,10.73 -6.438,13.37 -5.758,16.09C-4.438,16.42 -3.118,16.75 -1.758,17.09C-1.923,16.12 -2.088,15.151 -2.258,14.152C-2.877,9.824 -3.076,5.454 -2.758,1.09C-1.758,0.09 -1.758,0.09 0,0Z" style="fill:rgb(147,62,37);fill-rule:nonzero;"/>
    </g>
    <g transform="matrix(1,0,0,1,90,116)">
        <path d="M0,0C0.125,3.375 0.125,3.375 0,7C-2.762,9.762 -5.207,9.579 -9,10L-9,12C-11.97,12.66 -14.94,13.32 -18,14C-17.67,17.63 -17.34,21.26 -17,25C-21.611,22.695 -21.836,21.423 -24,17C-24.99,16.67 -25.98,16.34 -27,16L-27,21L-24,21L-24,25C-23.01,25.33 -22.02,25.66 -21,26L-21,28C-20.423,28.289 -19.845,28.578 -19.25,28.875C-17,30 -17,30 -15.125,31.188C-12.112,32.34 -10.092,31.773 -7,31C-5.659,30.349 -4.324,29.685 -3,29L0,29C0.227,28.423 0.454,27.845 0.688,27.25C2.348,24.403 4.315,22.879 7,21L9,21C9.495,19.515 9.495,19.515 10,18C12.926,15.218 14.94,14.607 18.938,14.688C24.377,14.887 27.464,15.38 31.313,19.438C34.262,25.665 33.878,32.147 31.688,38.625C31.131,39.739 30.574,40.853 30,42C28.515,42.495 28.515,42.495 27,43C26.702,43.749 26.404,44.498 26.098,45.27C24.769,48.576 23.016,50.25 20.438,52.688C17.305,55.537 17.305,55.537 15,59L12,59C11.67,59.99 11.34,60.98 11,62C8.525,62.495 8.525,62.495 6,63L6,65L3,65L3,67C-6.187,67.733 -12.77,66.086 -21,62L-21,60C-22.32,59.34 -23.64,58.68 -25,58C-24.67,57.34 -24.34,56.68 -24,56C-22.515,56.495 -22.515,56.495 -21,57C-11.508,58.024 -4.899,57.393 3.121,51.824C3.741,51.222 4.361,50.62 5,50L5,47C4.216,47.495 3.433,47.99 2.625,48.5C0,50 0,50 -2,50L-2,52C-7.002,55.9 -12.294,55.707 -18.379,55.488C-22.718,54.903 -24.811,53.81 -27.801,50.703C-30.266,47.202 -31,45.409 -31,41C-28.112,41.413 -26.199,41.867 -23.75,43.5C-20.432,45.31 -17.945,45.498 -14.188,45.688C-13.026,45.753 -11.865,45.819 -10.668,45.887C-9.788,45.924 -8.907,45.961 -8,46L-8,44C-6.391,42.563 -6.391,42.563 -4.25,41C-3.554,40.484 -2.858,39.969 -2.141,39.438C-0.149,38.1 1.83,37.016 4,36L4,32C2.35,32.66 0.7,33.32 -1,34L-1,36C-4.95,39.578 -9.551,43.431 -15.063,43.688C-19.823,42.856 -23.731,41.214 -28,39L-28,37L-30,37C-29.67,32.71 -29.34,28.42 -29,24L-31.246,30.641C-33.919,39.006 -33.686,45.646 -30.156,53.766C-28.754,56.476 -27.005,58.708 -25,61L-25,63C-21.153,65.084 -17.099,66.497 -13,68C-14.078,74.465 -16.249,77.475 -21,82C-21.598,82.681 -22.196,83.361 -22.813,84.063C-26.477,87.308 -30.571,90.117 -35.594,89.875C-38,89 -38,89 -39.441,87.137C-46.648,71.392 -49.336,57.009 -49.125,39.813C-49.115,38.369 -49.106,36.926 -49.098,35.482C-49.076,31.988 -49.042,28.494 -49,25C-48.229,24.902 -47.458,24.804 -46.664,24.703C-45.661,24.554 -44.658,24.404 -43.625,24.25C-42.627,24.111 -41.63,23.972 -40.602,23.828C-37.87,23.265 -37.87,23.265 -36.738,21.015C-36.495,20.35 -36.251,19.685 -36,19C-34.131,17.07 -32.166,15.625 -30,14L-28,14C-27.786,13.413 -27.572,12.827 -27.352,12.223C-22.719,4.604 -8.617,-0.646 0,0Z" style="fill:rgb(215,99,66);fill-rule:nonzero;"/>
    </g>
    <g transform="matrix(1,0,0,1,187,186)">
        <path d="M0,0C3.065,13.122 3.368,25.925 -3,38L-6,38C-6.22,38.597 -6.441,39.194 -6.668,39.809C-10.242,45.689 -19.597,48.129 -25.938,49.875C-31.861,51.071 -37.725,51.342 -43.75,51.438C-45.063,51.471 -45.063,51.471 -46.402,51.505C-52.794,51.482 -57.36,49.91 -63,47C-63.893,46.617 -64.787,46.234 -65.707,45.84C-73.294,42.588 -73.294,42.588 -76,40L-76,38C-76.598,37.773 -77.196,37.546 -77.813,37.313C-80.593,35.644 -81.564,33.872 -83,31L-83,29L-85,29C-88.467,21.137 -89.538,14.571 -89,6C-88.348,6.422 -87.695,6.843 -87.023,7.277C-86.149,7.825 -85.275,8.373 -84.375,8.938C-83.516,9.483 -82.658,10.028 -81.773,10.59C-76.705,13.167 -71.723,13.12 -66.125,13.063C-64.973,13.053 -63.82,13.044 -62.633,13.035C-61.33,13.018 -61.33,13.018 -60,13L-60,18C-45.919,22.245 -32.052,24.716 -18,19L-14,19C-13.67,17.02 -13.34,15.04 -13,13C-13.626,12.939 -14.253,12.879 -14.898,12.816C-15.716,12.733 -16.533,12.649 -17.375,12.563C-18.593,12.441 -18.593,12.441 -19.836,12.316C-22,12 -22,12 -24,11C-24.33,12.32 -24.66,13.64 -25,15L-27,15C-27.33,15.99 -27.66,16.98 -28,18L-30,18C-29.722,16.329 -29.722,16.329 -29.438,14.625C-28.683,11.174 -28.683,11.174 -30,9C-30.04,6.667 -30.043,4.333 -30,2C-29.505,3.485 -29.505,3.485 -29,5C-28.455,4.723 -27.909,4.446 -27.348,4.16C-18.282,-0.194 -9.925,-0.167 0,0Z" style="fill:rgb(248,197,173);fill-rule:nonzero;"/>
    </g>
    <g transform="matrix(1,0,0,1,178.895,26.3945)">
        <path d="M0,0C2.664,2.031 3.805,4.181 5.418,7.105C8.102,11.839 10.012,13.456 15.23,15.043C16.26,15.312 17.29,15.582 18.352,15.859C21.755,16.781 23.809,17.913 26.105,20.605C26.918,23.855 26.918,23.855 27.105,26.605C22.196,27.307 18.281,27.731 13.418,26.73C11.201,26.331 11.201,26.331 9.105,26.605C7.222,28.142 5.99,29.779 4.586,31.758C2.971,33.773 1.572,34.677 -0.707,35.855C-4.165,37.284 -4.165,37.284 -4.895,40.605C-3.575,41.265 -2.255,41.925 -0.895,42.605L-0.895,44.605C-0.3,44.656 0.294,44.706 0.906,44.758C5.01,46.34 6.065,50.683 7.84,54.465C9.921,59.63 10.732,63.579 9.043,69.043C8.717,72.631 8.717,72.631 10.98,74.691C12.745,76.225 14.53,77.734 16.332,79.223C27.566,88.875 35.186,103.903 37.105,118.605C37.391,125.023 37.582,131.322 36.105,137.605L34.105,137.605C34.044,138.162 33.982,138.719 33.918,139.293C32.761,142.587 30.622,144.201 28.105,146.605C23.758,151.145 20.018,155.146 20.148,161.805C20.35,164.107 20.686,166.334 21.105,168.605C21.27,169.554 21.435,170.503 21.605,171.48C23.754,174.524 26.303,174.972 29.816,175.93C32.084,176.599 34.026,177.49 36.105,178.605C37.125,185.063 33.73,189.579 30.105,194.605C24.486,200.372 16.912,202.094 9.105,202.605C8.239,202.358 7.373,202.11 6.48,201.855C5.697,201.773 4.913,201.69 4.105,201.605C2.72,202.754 1.343,203.914 0.02,205.133C-11.056,213.654 -27.462,214.991 -40.895,213.605C-44.604,212.929 -48.238,211.992 -51.883,211.033C-56.805,209.764 -61.095,209.389 -66.141,209.574C-72.285,209.644 -79.827,209.722 -85.023,206.137C-86.122,205.056 -87.207,203.963 -88.277,202.855C-90.872,200.85 -93.226,201.422 -96.375,201.637C-104.748,201.533 -113.693,197.087 -119.895,191.605L-119.895,189.605C-120.778,189.25 -120.778,189.25 -121.68,188.887C-130.057,184.041 -135.524,170.201 -138.273,161.223C-140.744,150.812 -141.12,140.066 -141.582,129.418C-141.631,128.331 -141.679,127.243 -141.729,126.123C-141.767,125.092 -141.805,124.062 -141.844,123C-141.878,122.081 -141.913,121.161 -141.948,120.214C-141.893,117.53 -141.624,115.19 -140.895,112.605C-138.597,111.457 -137.072,111.474 -134.52,111.355C-130.786,111.002 -130.173,110.898 -127.457,108.043C-126.941,107.239 -126.426,106.434 -125.895,105.605L-123.895,105.605C-123.4,104.12 -123.4,104.12 -122.895,102.605C-114.938,95.059 -103.366,86.605 -91.895,86.605L-91.895,84.605C-92.73,84.296 -92.73,84.296 -93.582,83.98C-99.085,80.709 -101.632,75.927 -103.395,69.969C-104.993,62.412 -103.913,55.559 -100.395,48.668C-99.9,47.987 -99.405,47.307 -98.895,46.605L-96.895,46.605C-96.565,45.615 -96.235,44.625 -95.895,43.605C-94.207,42.668 -94.207,42.668 -91.895,42.605C-89.047,44.233 -86.626,45.813 -84.395,48.23C-82.195,50.246 -79.721,50.789 -76.895,51.605L-76.895,53.605C-61.431,53.379 -42.655,50.631 -30.895,39.605C-28.848,35.513 -29.693,30.992 -30.895,26.73C-32.98,18.96 -32.082,12.91 -28.895,5.605L-26.895,5.605L-26.895,3.605L-24.895,3.605L-24.895,1.605C-16.341,-2.924 -8.993,-4.288 0,0ZM-27.457,8.293C-30.627,15.597 -28.92,22.07 -26.504,29.352C-25.677,32.411 -25.984,34.593 -26.895,37.605C-27.266,38.905 -27.266,38.905 -27.645,40.23C-30.479,45.616 -35.543,47.399 -40.895,49.605C-41.517,49.87 -42.14,50.135 -42.781,50.408C-55.478,55.721 -67.87,58.446 -81.27,53.668C-82.819,52.999 -84.363,52.314 -85.895,51.605C-86.885,51.275 -87.875,50.945 -88.895,50.605C-89.225,49.615 -89.555,48.625 -89.895,47.605C-91.91,46.872 -91.91,46.872 -93.895,46.605C-98.53,50.846 -100.309,53.656 -100.895,59.98C-101.094,65.544 -100.432,70.271 -98.895,75.605L-96.895,75.605C-96.626,76.204 -96.358,76.802 -96.082,77.418C-94.895,79.604 -93.799,81.019 -91.895,82.605L-89.895,82.605C-89.93,84.895 -89.93,84.895 -90.895,87.605C-93.412,88.981 -95.667,89.994 -98.332,90.98C-105.083,93.692 -111.448,96.643 -116.895,101.605L-116.895,103.605C-117.451,103.832 -118.008,104.059 -118.582,104.293C-122.094,106.286 -125.075,108.967 -126.895,112.605C-129.398,113.238 -129.398,113.238 -132.457,113.73C-133.469,113.898 -134.481,114.066 -135.523,114.238C-136.306,114.359 -137.088,114.481 -137.895,114.605C-137.97,118.746 -138.024,122.885 -138.059,127.026C-138.074,128.427 -138.094,129.828 -138.121,131.229C-138.365,144.527 -136.972,157.202 -131.582,169.543C-131.281,170.253 -130.98,170.963 -130.669,171.695C-128.37,176.935 -125.782,181.356 -121.895,185.605L-119.895,185.605C-119.565,186.595 -119.235,187.585 -118.895,188.605C-116.879,189.339 -116.879,189.339 -114.895,189.605L-114.895,191.605C-106.729,196.578 -100.512,198.256 -91.145,198.109C-87.895,198.605 -87.895,198.605 -85.781,201.02C-84.847,202.3 -84.847,202.3 -83.895,203.605C-76.781,206.972 -68.82,206.908 -61.122,206.407C-56.98,206.232 -54.253,206.733 -50.516,208.582C-45.506,211.018 -41.149,211.184 -35.645,211.043C-34.724,211.028 -33.803,211.014 -32.854,210.999C-20.888,210.669 -6.761,208.472 2.105,199.605C4.434,199.428 6.77,199.338 9.105,199.293C15.915,199.01 21.556,197.723 27.105,193.605C29.525,190.964 29.525,190.964 30.105,187.605L32.105,187.605C32.435,185.295 32.765,182.985 33.105,180.605C31.858,180.025 31.858,180.025 30.586,179.434C29.499,178.913 28.413,178.392 27.293,177.855C25.675,177.09 25.675,177.09 24.023,176.309C21.027,174.56 19.627,173.696 18.105,170.605C17.864,167.87 17.776,165.391 17.855,162.668C17.861,161.965 17.866,161.262 17.871,160.537C17.927,156.783 18.22,153.255 19.105,149.605L21.105,149.605L21.105,147.605L23.105,147.605C24.97,146 26.497,144.449 28.105,142.605C28.653,142.009 29.201,141.412 29.766,140.797C35.25,133.938 35.022,127.081 34.105,118.605C33.426,115.108 32.405,111.918 31.105,108.605C30.815,107.799 30.525,106.992 30.227,106.16C26.984,97.504 23.198,88.74 16.105,82.605C15.549,82.007 14.992,81.409 14.418,80.793C13.153,79.382 13.153,79.382 11.105,79.605L11.105,77.605C9.785,77.275 8.465,76.945 7.105,76.605L7.105,74.605L5.105,74.605C5.296,73.867 5.487,73.128 5.684,72.367C7.428,64.387 7.012,58.841 3.105,51.605C-0.102,47.47 -2.847,45.897 -7.895,44.605C-7.565,40.975 -7.235,37.345 -6.895,33.605C-5.564,33.513 -5.564,33.513 -4.207,33.418C-0.079,32.405 1.363,30.793 4.105,27.605C4.479,26.885 4.853,26.164 5.238,25.422C7.105,23.605 7.105,23.605 10.898,23.434C12.365,23.553 13.83,23.695 15.293,23.855C16.043,23.921 16.792,23.987 17.564,24.055C19.413,24.22 21.26,24.41 23.105,24.605C23.213,22.652 23.213,22.652 22.105,20.605C19.508,19.579 17.025,18.757 14.355,17.98C6.871,15.547 6.871,15.547 4.039,12.066C2.793,9.355 2.793,9.355 1.93,6.777C1.214,4.258 1.214,4.258 -1.895,2.605L-4.895,2.605L-4.895,0.605C-14.385,-0.193 -20.774,1.284 -27.457,8.293Z" style="fill:rgb(9,7,6);fill-rule:nonzero;"/>
    </g>
    <g transform="matrix(1,0,0,1,116,128)">
        <path d="M0,0C2.438,0.813 2.438,0.813 5,2C5.495,3.485 5.495,3.485 6,5C6.949,4.361 7.898,3.721 8.875,3.063C12,1 12,1 14,0C13.688,2.375 13.688,2.375 13,5C12.01,5.66 11.02,6.32 10,7C9.953,10.13 10.107,12.988 11,16C13.952,18.89 17.948,20.352 22,21L22,23C26.021,23.088 30.041,23.141 34.063,23.188C35.196,23.213 36.33,23.238 37.498,23.264C43.884,23.32 48.326,22.933 54,20L57,20L57,18L59,18C59.495,16.515 59.495,16.515 60,15C62.063,14.313 62.063,14.313 64,14C64.227,14.825 64.454,15.65 64.688,16.5C65.768,19.382 66.755,21.257 68.438,23.75C74.947,33.792 75.171,45.402 75,57L80,57C80.039,58.212 80.039,58.212 80.078,59.449C80.388,65.887 80.388,65.887 82.375,71.938C86.49,75.171 91.173,77.044 96,79C95.67,81.31 95.34,83.62 95,86L93,86C92.66,87.145 92.66,87.145 92.313,88.313C90.683,91.65 89.29,92.355 86,94C85.116,94.519 84.231,95.039 83.32,95.574C79.469,97.228 76.229,97.343 72.125,97.188C71.437,97.174 70.748,97.16 70.039,97.146C68.359,97.111 66.679,97.058 65,97C65.99,96.67 66.98,96.34 68,96C68.644,94.145 68.644,94.145 69,92C69.527,90.678 70.055,89.357 70.582,88.035C72.566,82.151 72.104,76.557 71.688,70.438C71.626,69.333 71.565,68.229 71.502,67.092C71.35,64.393 71.182,61.697 71,59C69.263,58.991 67.526,58.985 65.789,58.98C64.822,58.977 63.855,58.973 62.858,58.969C55.387,59.049 48.992,60.372 42,63L42,60C48.384,55.012 56.248,54.7 64,54.875C65.162,54.889 65.162,54.889 66.348,54.902C68.232,54.926 70.116,54.961 72,55C71.352,50.664 70.681,46.331 70,42C69.844,40.976 69.688,39.953 69.527,38.898C68.532,32.829 67.505,27.505 63,23L63,20C62.096,20.422 61.193,20.843 60.262,21.277C58.492,22.099 58.492,22.099 56.688,22.938C55.516,23.483 54.344,24.028 53.137,24.59C48.029,26.886 43.832,27.152 38.313,27.125C37.535,27.129 36.757,27.133 35.955,27.137C28.141,27.124 21.552,26.704 14.5,22.938C12.938,22.116 12.938,22.116 11.344,21.277C10.57,20.856 9.797,20.434 9,20L9,23.813C7.772,34.413 -3.003,44.466 -11,51C-14.336,52.309 -14.336,52.309 -17,53L-17,56C-16.25,55.856 -15.5,55.711 -14.727,55.563C0.631,52.777 12.375,54.823 27,60L27,63C25.35,62.67 23.7,62.34 22,62L22,60C21.336,59.939 20.672,59.879 19.988,59.816C19.105,59.733 18.222,59.649 17.313,59.563C16.442,59.481 15.572,59.4 14.676,59.316C12,59 12,59 9.75,58.445C5.699,57.789 1.773,58.08 -2.313,58.313C-3.129,58.348 -3.946,58.383 -4.787,58.42C-10.109,58.704 -14.858,59.615 -20,61C-23,61.125 -23,61.125 -25,61C-24.67,60.01 -24.34,59.02 -24,58L-21,58L-21,56C-22.058,56.491 -22.058,56.491 -23.137,56.992C-26.239,58.084 -28.54,58.204 -31.813,58.125C-32.788,58.107 -33.764,58.089 -34.77,58.07C-35.874,58.036 -35.874,58.036 -37,58C-37.093,59.578 -37.093,59.578 -37.188,61.188C-38.162,65.76 -39.554,66.946 -43,70C-43.804,71.011 -44.609,72.021 -45.438,73.063C-49.961,78.247 -54.478,80.435 -61,82C-61.33,80.68 -61.66,79.36 -62,78C-60.605,77.374 -59.209,76.749 -57.813,76.125C-56.993,75.755 -56.173,75.385 -55.328,75.004C-53,74 -53,74 -50.063,73.063C-47.241,71.609 -47.087,69.898 -46,67C-44.675,66.317 -43.342,65.649 -42,65C-41.308,63.153 -41.308,63.153 -41,61C-40.353,59.326 -39.69,57.657 -39,56C-39.866,55.917 -40.733,55.835 -41.625,55.75C-46.758,54.609 -49.873,52.425 -53.125,48.313C-55.386,44.318 -57.203,40.217 -59,36C-59.33,35.34 -59.66,34.68 -60,34C-60.468,26.747 -59.591,19.834 -57,13C-56.01,12.34 -55.02,11.68 -54,11C-53.788,16.192 -54.409,20.127 -56,25L-54,25L-54,27C-48.172,29.266 -43.262,30.895 -37,30C-34.702,28.597 -32.704,27.068 -30.664,25.313C-29,24 -29,24 -27,24L-27,22C-25.35,21.34 -23.7,20.68 -22,20C-22,24 -22,24 -24.117,26.141C-25.027,26.837 -25.937,27.533 -26.875,28.25C-27.78,28.956 -28.685,29.663 -29.617,30.391C-32,32 -32,32 -34,32L-34,34C-43.03,34.637 -49.285,33.876 -57,29C-54.927,35.884 -54.927,35.884 -50.207,41.16C-44.245,43.429 -35.951,43.022 -30.035,40.973C-29.028,40.491 -29.028,40.491 -28,40L-28,38C-25.36,36.68 -22.72,35.36 -20,34C-20.3,37.216 -20.686,38.679 -22.977,41.02C-31.078,46.504 -37.538,46.731 -47,46L-50,46C-49.01,46.66 -48.02,47.32 -47,48L-47,50C-46.412,50.134 -45.824,50.268 -45.219,50.406C-43,51 -43,51 -39.5,52.5C-34.171,54.569 -28.66,54.726 -23,55L-23,53L-20,53L-20,51C-19.196,50.711 -18.391,50.423 -17.563,50.125C-14.867,49.267 -14.867,49.267 -14,47L-11,47C-10.753,46.423 -10.505,45.845 -10.25,45.25C-8.383,41.889 -5.655,39.616 -2.875,37C-0.934,35.12 -0.934,35.12 0.063,32.875C1,31 1,31 4,29C6.416,23.023 7.741,15.139 5.172,9.031C3.687,6.771 1.908,4.908 0,3L0,0Z" style="fill:rgb(151,63,38);fill-rule:nonzero;"/>
    </g>
    <g transform="matrix(1,0,0,1,91,184)">
        <path d="M0,0L4,0L4,2C3.01,2.33 2.02,2.66 1,3C0.67,3.66 0.34,4.32 0,5C0.718,4.795 1.436,4.59 2.176,4.379C16.81,0.57 32.421,-0.769 47,4C47.495,4.99 47.495,4.99 48,6C48.99,6.66 49.98,7.32 51,8C41.013,14.508 32.795,17.389 20.797,15.688C15.801,14.62 11.635,12.635 8,9C7.643,16.186 8.166,21.387 11,28L11,31L13,31C13.973,32.504 13.973,32.504 15.063,34.563C18.678,40.638 24.219,44.146 30,48C21.625,50.36 11.96,49.42 4,46C3.368,45.147 2.737,44.293 2.086,43.414C0.167,40.666 0.167,40.666 -3.25,40.504C-4.488,40.523 -5.725,40.543 -7,40.563C-14.754,40.457 -20.355,38.047 -27,34L-27,32C-29.475,31.01 -29.475,31.01 -32,30L-32,28C-32.99,27.67 -33.98,27.34 -35,27L-35,25C-34.408,24.769 -33.817,24.539 -33.207,24.301C-28.036,22.166 -24.763,20.105 -21,16L-19,16C-18.567,15.103 -18.567,15.103 -18.125,14.188C-17,12 -17,12 -15,9L-13,9C-12.67,6.69 -12.34,4.38 -12,2C-11.218,1.939 -10.435,1.879 -9.629,1.816C-8.111,1.691 -8.111,1.691 -6.563,1.563C-5.553,1.481 -4.544,1.4 -3.504,1.316C-1.064,1.268 -1.064,1.268 0,0Z" style="fill:rgb(213,99,66);fill-rule:nonzero;"/>
    </g>
    <g transform="matrix(1,0,0,1,174,27)">
        <path d="M0,0L0,2C0.619,2.144 1.238,2.289 1.875,2.438C4,3 4,3 6,4C6.547,5.561 7.087,7.124 7.625,8.688C9.863,13.5 12.248,14.9 17.021,16.652C18.499,17.131 19.984,17.588 21.475,18.022C23.35,18.58 25.181,19.281 27,20C27.984,22.164 27.984,22.164 28,24C22.585,24.115 17.371,23.682 12,23C11.484,23.908 10.969,24.815 10.438,25.75C7.921,29.543 5.087,31.068 1,33L-2,33C-2.33,36.63 -2.66,40.26 -3,44C-2.113,44.227 -1.226,44.454 -0.313,44.688C4.464,46.58 6.873,48.85 9.27,53.422C11.7,59.176 12.596,63.729 10.973,69.824C9.338,73.481 7.437,74.966 4,77C2.515,76.505 2.515,76.505 1,76L1,74C-0.021,73.629 -0.021,73.629 -1.063,73.25C-4.569,71.758 -7.716,69.932 -11,68C-10.505,66.639 -10.505,66.639 -10,65.25C-8.289,59.217 -7.644,52.044 -10.227,46.246C-12.277,43.649 -13.535,43.056 -16.688,42.188C-17.496,41.954 -18.304,41.721 -19.137,41.48C-20.059,41.243 -20.059,41.243 -21,41C-20.965,40.394 -20.93,39.788 -20.895,39.164C-20.742,34.433 -20.977,30.503 -22.5,26C-24.344,20.353 -25.499,14.63 -23.156,8.957C-17.663,0.253 -9.588,-0.634 0,0Z" style="fill:rgb(108,95,91);fill-rule:nonzero;"/>
    </g>
    <g transform="matrix(1,0,0,1,90,116)">
        <path d="M0,0C0.125,3.375 0.125,3.375 0,7C-2.762,9.762 -5.207,9.579 -9,10L-9,12C-11.97,12.66 -14.94,13.32 -18,14C-17.67,17.63 -17.34,21.26 -17,25C-21,23 -21,23 -22.5,19.938C-23.668,16.854 -23.668,16.854 -26.188,16.125C-26.786,16.084 -27.384,16.043 -28,16C-28.124,16.866 -28.247,17.733 -28.375,18.625C-28.984,21.911 -29.944,24.833 -31,28C-33.863,38.284 -33.997,46.344 -29,56C-27.719,57.707 -26.405,59.394 -25,61L-25,63C-21.153,65.084 -17.099,66.497 -13,68C-14.078,74.465 -16.249,77.475 -21,82C-21.598,82.681 -22.196,83.361 -22.813,84.063C-26.477,87.308 -30.571,90.117 -35.594,89.875C-38,89 -38,89 -39.441,87.137C-46.648,71.392 -49.336,57.009 -49.125,39.813C-49.115,38.369 -49.106,36.926 -49.098,35.482C-49.076,31.988 -49.042,28.494 -49,25C-48.229,24.902 -47.458,24.804 -46.664,24.703C-45.661,24.554 -44.658,24.404 -43.625,24.25C-42.627,24.111 -41.63,23.972 -40.602,23.828C-37.87,23.265 -37.87,23.265 -36.738,21.015C-36.495,20.35 -36.251,19.685 -36,19C-34.131,17.07 -32.166,15.625 -30,14L-28,14C-27.786,13.413 -27.572,12.827 -27.352,12.223C-22.719,4.604 -8.617,-0.646 0,0Z" style="fill:rgb(160,218,204);fill-rule:nonzero;"/>
    </g>
    <g transform="matrix(1,0,0,1,131,94)">
        <path d="M0,0C0.11,0.566 0.219,1.132 0.332,1.715C0.491,2.448 0.649,3.182 0.813,3.938C0.963,4.668 1.114,5.399 1.27,6.152C1.511,6.762 1.752,7.372 2,8C2.99,8.33 3.98,8.66 5,9C5.39,17.992 2.687,27.294 -3.125,34.313C-6,37 -6,37 -9,38C-9.825,37.381 -10.65,36.763 -11.5,36.125C-15.796,32.963 -20.841,33.184 -26,33L-26,35C-27.684,36.171 -29.425,37.262 -31.188,38.313C-35.358,40.88 -38.581,43.486 -42,47C-46.115,49.942 -48.769,51 -54,51C-54.99,47.04 -55.98,43.08 -57,39C-50.671,35.994 -44.858,33.423 -38,32C-38.31,29.75 -38.623,27.5 -38.938,25.25C-39.112,23.997 -39.286,22.744 -39.465,21.453C-39.86,18.9 -40.304,16.481 -41,14C-36.667,11.606 -32.405,10.14 -27.66,8.844C-24.984,7.995 -22.471,6.911 -19.903,5.785C-16.568,4.41 -13.133,3.37 -9.688,2.313C-8.973,2.088 -8.258,1.863 -7.521,1.631C-2.262,0 -2.262,0 0,0Z" style="fill:rgb(181,164,160);fill-rule:nonzero;"/>
    </g>
    <g transform="matrix(1,0,0,1,125,148)">
        <path d="M0,0C3.945,0.478 6.59,1.82 9.863,4.063C18.318,7.772 32.451,7.392 41.285,5.176C44.847,3.765 47.811,2.126 51,0L54,0C55.5,2.125 55.5,2.125 57,5C57.516,5.866 58.031,6.733 58.563,7.625C61.761,15.134 62.265,22.925 62,31L46,31C49.287,29.356 51.479,28.587 55,28L55,24C51.777,22.926 49.385,22.867 46,22.875C44.948,22.872 43.896,22.87 42.813,22.867C39.919,22.876 39.919,22.876 37,24L37,26L35,26C34.34,24.68 33.68,23.36 33,22C30.03,22.33 27.06,22.66 24,23L24,19C20.312,20.229 19.276,21.939 17,25C13.625,24.453 11.918,23.945 9,22C6.204,21.464 6.204,21.464 3.125,21.25C2.096,21.152 1.068,21.054 0.008,20.953C-3.151,21.002 -5.173,21.644 -8,23L-8,29C-8.664,29.193 -9.328,29.387 -10.012,29.586C-16.598,31.528 -16.598,31.528 -23,34C-21.883,30.648 -21.046,29.983 -18.375,27.813C-14.128,24.203 -10.517,20.315 -7,16C-6.513,15.424 -6.025,14.848 -5.523,14.254C-2.024,9.823 -0.842,5.543 0,0Z" style="fill:rgb(248,196,172);fill-rule:nonzero;"/>
    </g>
    <g transform="matrix(1,0,0,1,152,64)">
        <path d="M0,0C0.495,1.98 0.495,1.98 1,4C2.072,4.103 3.145,4.206 4.25,4.313C7.919,4.985 9.418,5.418 12,8C14.068,11.311 14.298,14.004 14.313,17.875C14.329,18.883 14.346,19.891 14.363,20.93C13.944,24.476 12.748,26.911 11,30C9.442,29.368 9.442,29.368 7.852,28.723C0.161,25.676 -6.632,23.261 -15,23L-15,35L-17,35C-17.495,31.04 -17.495,31.04 -18,27C-28.331,29.588 -38.442,32.302 -48.41,36.082C-51,37 -51,37 -53,37C-55.554,30.456 -55.776,25.445 -53,19C-52.423,19.001 -51.845,19.002 -51.25,19.003C-34.153,18.926 -14.012,16.618 -1,4C-0.13,1.871 -0.13,1.871 0,0Z" style="fill:rgb(107,95,90);fill-rule:nonzero;"/>
    </g>
    <g transform="matrix(1,0,0,1,208,136)">
        <path d="M0,0C0.99,0.33 1.98,0.66 3,1C5.922,8.689 7.041,19.118 3.832,26.793C2.36,29.052 0.822,31.016 -1,33C-1.476,33.545 -1.951,34.091 -2.441,34.652C-3.75,36.063 -3.75,36.063 -6,38L-8,38L-8,40L-10,40C-10.164,40.957 -10.164,40.957 -10.332,41.934C-10.57,43.173 -10.57,43.173 -10.813,44.438C-10.963,45.261 -11.114,46.085 -11.27,46.934C-11.631,47.956 -11.631,47.956 -12,49C-13.485,49.495 -13.485,49.495 -15,50C-15.66,49.67 -16.32,49.34 -17,49C-17.404,46.008 -17.702,43.069 -17.938,40.063C-18.92,29.59 -20.237,21.549 -26.891,13.105C-28.336,10.362 -27.872,8.905 -27,6C-25.866,6.046 -24.731,6.093 -23.563,6.141C-12.181,6.59 -12.181,6.59 -2,2C-1.34,1.34 -0.68,0.68 0,0Z" style="fill:rgb(214,98,65);fill-rule:nonzero;"/>
    </g>
    <g transform="matrix(1,0,0,1,168.75,26.875)">
        <path d="M0,0C0.985,0.018 1.97,0.036 2.984,0.055C4.106,0.089 4.106,0.089 5.25,0.125L5.25,2.125C5.869,2.269 6.488,2.414 7.125,2.563C9.25,3.125 9.25,3.125 11.25,4.125C11.797,5.686 12.337,7.249 12.875,8.813C15.113,13.625 17.498,15.025 22.271,16.777C23.749,17.256 25.234,17.713 26.725,18.147C28.6,18.705 30.431,19.406 32.25,20.125C33.234,22.289 33.234,22.289 33.25,24.125C28.438,24.227 23.927,23.886 19.168,23.148C18.535,23.141 17.902,23.133 17.25,23.125C16.59,23.785 15.93,24.445 15.25,25.125C12.5,24.918 12.5,24.918 9.25,24.313C8.178,24.12 7.105,23.928 6,23.73C3.25,23.125 3.25,23.125 1.25,22.125C0.59,22.455 -0.07,22.785 -0.75,23.125C-5.651,23.495 -8.914,23.379 -12.75,20.125L-12.75,16.125L-9.75,16.125L-9.75,13.125L-11.75,13.125C-13.095,5.669 -13.095,5.669 -11.563,3.25C-7.501,0.729 -4.862,-0.116 0,0Z" style="fill:rgb(108,95,91);fill-rule:nonzero;"/>
    </g>
    <g transform="matrix(1,0,0,1,185,102)">
        <path d="M0,0C2.625,0.938 2.625,0.938 5,2L5,4C5.578,4.227 6.155,4.454 6.75,4.688C9.564,6.329 11.027,8.436 13,11C13.66,11.33 14.32,11.66 15,12C16.059,13.715 17.05,15.473 18,17.25C18.516,18.204 19.031,19.158 19.563,20.141C21.703,24.399 23,27.174 23,32L20,32L20,34C15.267,36.994 11.735,38.795 6,39C3.655,38.374 1.32,37.712 -1,37C-0.965,35.805 -0.93,34.61 -0.895,33.379C-0.616,21.388 -0.616,21.388 -4,10C-4.667,8 -5.333,6 -6,4L-3,4C-2.67,3.01 -2.34,2.02 -2,1C-1.34,0.67 -0.68,0.34 0,0Z" style="fill:rgb(179,161,157);fill-rule:nonzero;"/>
    </g>
    <g transform="matrix(1,0,0,1,116.875,131.625)">
        <path d="M0,0C3.029,1.96 4.449,4.216 6.125,7.375C5.795,8.365 5.465,9.355 5.125,10.375L5.125,8.375C-3.769,7.953 -11.003,7.776 -18.875,12.375C-20.205,13.048 -21.538,13.717 -22.875,14.375L-22.875,16.375C-24.525,17.035 -26.175,17.695 -27.875,18.375L-27.875,20.375C-31.825,23.953 -36.426,27.806 -41.938,28.063C-46.698,27.231 -50.606,25.589 -54.875,23.375L-54.875,21.375L-56.875,21.375C-56.545,17.085 -56.215,12.795 -55.875,8.375C-56.865,8.87 -56.865,8.87 -57.875,9.375C-56.885,6.405 -55.895,3.435 -54.875,0.375C-54.545,1.695 -54.215,3.015 -53.875,4.375C-52.885,4.705 -51.895,5.035 -50.875,5.375L-50.875,9.375C-49.885,9.705 -48.895,10.035 -47.875,10.375L-47.875,12.375C-47.298,12.664 -46.72,12.953 -46.125,13.25C-43.875,14.375 -43.875,14.375 -42,15.563C-38.987,16.715 -36.967,16.148 -33.875,15.375C-32.534,14.724 -31.199,14.06 -29.875,13.375L-26.875,13.375C-26.648,12.798 -26.421,12.22 -26.188,11.625C-24.527,8.778 -22.56,7.254 -19.875,5.375L-17.875,5.375C-17.545,4.385 -17.215,3.395 -16.875,2.375C-12.099,-2.167 -6.08,-1.322 0,0Z" style="fill:rgb(212,98,65);fill-rule:nonzero;"/>
    </g>
    <g transform="matrix(1,0,0,1,188,187)">
        <path d="M0,0C4.645,0.613 4.645,0.613 7,2C8.078,4.208 8.643,6.38 9.281,8.75C10.393,12.231 12.118,13.807 15,16C17.94,17.502 20.925,18.801 24,20C23.67,22.31 23.34,24.62 23,27L21,27C20.66,28.145 20.66,28.145 20.313,29.313C18.683,32.65 17.29,33.355 14,35C12.674,35.779 12.674,35.779 11.32,36.574C7.469,38.228 4.229,38.343 0.125,38.188C-0.563,38.174 -1.252,38.16 -1.961,38.146C-3.641,38.111 -5.321,38.058 -7,38C-5.515,37.505 -5.515,37.505 -4,37C-3.355,35.151 -3.355,35.151 -3,33C-2.474,31.631 -1.945,30.262 -1.414,28.895C0.342,23.685 0.112,19.103 -0.375,13.688C-0.513,11.942 -0.646,10.196 -0.773,8.449C-0.873,7.31 -0.873,7.31 -0.974,6.147C-1.001,3.92 -0.635,2.127 0,0Z" style="fill:rgb(211,97,64);fill-rule:nonzero;"/>
    </g>
    <g transform="matrix(1,0,0,1,125,148)">
        <path d="M0,0C3.347,0.406 5.229,1.144 8.125,2.969C12.28,5.4 16.201,5.86 20.938,6.25C22.106,6.366 22.106,6.366 23.299,6.484C25.198,6.671 27.099,6.837 29,7L29,8L22,8C22.285,9.418 22.578,10.834 22.875,12.25C23.119,13.433 23.119,13.433 23.367,14.641C23.992,16.968 24.848,18.89 26,21L31,21C29,23 29,23 26.375,23.125C25.591,23.084 24.808,23.043 24,23L24,19C20.312,20.229 19.276,21.939 17,25C13.625,24.453 11.918,23.945 9,22C6.204,21.464 6.204,21.464 3.125,21.25C2.096,21.152 1.068,21.054 0.008,20.953C-3.151,21.002 -5.173,21.644 -8,23L-8,29C-8.664,29.193 -9.328,29.387 -10.012,29.586C-16.598,31.528 -16.598,31.528 -23,34C-21.883,30.648 -21.046,29.983 -18.375,27.813C-14.128,24.203 -10.517,20.315 -7,16C-6.513,15.424 -6.025,14.848 -5.523,14.254C-2.024,9.823 -0.842,5.543 0,0Z" style="fill:rgb(246,193,169);fill-rule:nonzero;"/>
    </g>
    <g transform="matrix(1,0,0,1,119,158)">
        <path d="M0,0C-0.66,0.33 -1.32,0.66 -2,1C-2.277,1.749 -2.554,2.498 -2.84,3.27C-4.228,6.536 -5.993,8.258 -8.563,10.688C-11.695,13.537 -11.695,13.537 -14,17L-17,17C-17.495,18.485 -17.495,18.485 -18,20C-19.65,20.33 -21.3,20.66 -23,21L-23,23L-26,23L-26,25C-35.187,25.733 -41.77,24.086 -50,20L-50,18C-51.32,17.34 -52.64,16.68 -54,16C-53.67,15.34 -53.34,14.68 -53,14C-52.01,14.33 -51.02,14.66 -50,15C-40.606,16.013 -34.024,15.499 -26.172,9.824C-24.049,8.119 -24.049,8.119 -22.555,6.438C-16.529,0.866 -7.865,-0.655 0,0Z" style="fill:rgb(213,98,65);fill-rule:nonzero;"/>
    </g>
    <g transform="matrix(1,0,0,1,90,116)">
        <path d="M0,0C0.125,3.375 0.125,3.375 0,7C-2.762,9.762 -5.207,9.579 -9,10L-9,12C-11.97,12.66 -14.94,13.32 -18,14C-17.67,17.63 -17.34,21.26 -17,25C-21,23 -21,23 -22.5,19.938C-23.668,16.854 -23.668,16.854 -26.188,16.125C-26.786,16.084 -27.384,16.043 -28,16C-28.124,16.866 -28.247,17.733 -28.375,18.625C-28.984,21.911 -29.944,24.833 -31,28C-31.721,30.989 -32.371,33.99 -33,37L-34,37C-33.67,34.36 -33.34,31.72 -33,29C-34.438,29.31 -35.875,29.623 -37.313,29.938C-38.113,30.112 -38.914,30.286 -39.738,30.465C-42.145,30.999 -42.145,30.999 -45,32C-45.33,32.66 -45.66,33.32 -46,34L-47,34C-47.495,36.475 -47.495,36.475 -48,39L-49,39L-49,25C-44.801,24.414 -44.801,24.414 -40.602,23.828C-37.882,23.275 -37.882,23.275 -36.836,21.094C-36.56,20.403 -36.284,19.712 -36,19C-34.131,17.07 -32.166,15.625 -30,14L-28,14C-27.786,13.413 -27.572,12.827 -27.352,12.223C-22.719,4.604 -8.617,-0.646 0,0Z" style="fill:rgb(156,210,196);fill-rule:nonzero;"/>
    </g>
    <g transform="matrix(1,0,0,1,61,139)">
        <path d="M0,0L1,0C1.212,5.192 0.591,9.127 -1,14L1,14L1,16C6.828,18.266 11.738,19.895 18,19C20.298,17.597 22.296,16.068 24.336,14.313C26,13 26,13 28,13L28,11C29.65,10.34 31.3,9.68 33,9C33,13 33,13 30.883,15.141C29.973,15.837 29.063,16.533 28.125,17.25C27.22,17.956 26.315,18.663 25.383,19.391C23,21 23,21 21,21L21,23C11.97,23.637 5.715,22.876 -2,18C0.073,24.884 0.073,24.884 4.793,30.16C10.755,32.429 19.049,32.022 24.965,29.973C25.636,29.652 26.308,29.331 27,29L27,27C29.64,25.68 32.28,24.36 35,23C34.7,26.216 34.314,27.679 32.023,30.02C23.922,35.504 17.462,35.731 8,35L5,35C5.99,35.66 6.98,36.32 8,37L8,39C9.32,39.33 10.64,39.66 12,40C11.34,40.99 10.68,41.98 10,43C3.314,40.003 -1.017,33.764 -3.813,27.125C-6.636,18.704 -4.8,10.233 -2,2C-1.34,1.34 -0.68,0.68 0,0Z" style="fill:rgb(153,65,39);fill-rule:nonzero;"/>
    </g>
    <g transform="matrix(1,0,0,1,155,31)">
        <path d="M0,0C0.66,0.33 1.32,0.66 2,1L2,9L4,9L4,12L1,12C1.336,14.519 1.574,15.672 3.625,17.25C7.887,18.596 11.792,18.403 16,17C17.343,17.647 18.674,18.319 20,19C22.65,19.758 25.314,20.373 28,21C27.622,23.43 27.404,24.664 25.477,26.266C24.56,26.753 24.56,26.753 23.625,27.25C22.716,27.753 22.716,27.753 21.789,28.266C20,29 20,29 17,29C16.67,30.32 16.34,31.64 16,33C15.34,32.01 14.68,31.02 14,30C8.993,28.331 4.025,28.584 -1,30C-6.532,14.243 -6.532,14.243 -5,7C-3.58,4.269 -2.042,2.348 0,0Z" style="fill:rgb(107,95,91);fill-rule:nonzero;"/>
    </g>
    <g transform="matrix(1,0,0,1,91,112)">
        <path d="M0,0C1.906,3.212 2.223,5.539 2.125,9.25C2.107,10.142 2.089,11.034 2.07,11.953C2.047,12.629 2.024,13.304 2,14C-0.248,14.983 -2.499,15.961 -4.75,16.938C-5.701,17.354 -5.701,17.354 -6.672,17.779C-9.744,19.107 -12.71,20.344 -16,21C-15.67,22.052 -15.34,23.104 -15,24.188C-14.16,27.389 -13.802,29.741 -14,33C-7.099,30.976 -1.687,28.687 3.5,23.5C6.141,20.859 8.802,18.919 12,17L14,17L14,15L25,15C25.495,17.475 25.495,17.475 26,20C25.143,19.93 24.286,19.861 23.402,19.789C15.464,19.249 15.464,19.249 8.813,23C8.303,23.557 7.794,24.114 7.27,24.688C6.851,25.121 6.432,25.554 6,26L4,26C3.505,27.485 3.505,27.485 3,29C-0.326,33.296 -4.891,35.452 -10,37C-15.393,37 -18.117,35.668 -22,32C-22.598,31.505 -23.196,31.01 -23.813,30.5C-25,29 -25,29 -25,25C-26.32,25.33 -27.64,25.66 -29,26C-28.67,24.02 -28.34,22.04 -28,20C-26.188,20.125 -26.188,20.125 -24,21C-22.95,22.974 -21.95,24.976 -21,27C-20.01,27.66 -19.02,28.32 -18,29C-18.156,28.374 -18.312,27.747 -18.473,27.102C-18.765,25.876 -18.765,25.876 -19.063,24.625C-19.26,23.813 -19.457,23.001 -19.66,22.164C-20,20 -20,20 -19,18C-16.934,17.367 -16.934,17.367 -14.438,16.875C-13.611,16.707 -12.785,16.54 -11.934,16.367C-11.296,16.246 -10.657,16.125 -10,16L-10,14C-7.36,13.01 -4.72,12.02 -2,11C-1.67,8.69 -1.34,6.38 -1,4C-2.32,3.67 -3.64,3.34 -5,3C-3.35,2.67 -1.7,2.34 0,2L0,0Z" style="fill:rgb(151,67,42);fill-rule:nonzero;"/>
    </g>
    <g transform="matrix(1,0,0,1,187,186)">
        <path d="M0,0C1.381,6.411 1.381,6.411 0,10C-3.044,13.213 -4.668,13.96 -9.113,14.094C-14.469,13.754 -19.075,13.219 -24,11C-24.33,12.32 -24.66,13.64 -25,15L-27,15C-27.33,15.99 -27.66,16.98 -28,18L-30,18C-29.814,16.886 -29.629,15.773 -29.438,14.625C-28.683,11.174 -28.683,11.174 -30,9C-30.04,6.667 -30.043,4.333 -30,2C-29.67,2.99 -29.34,3.98 -29,5C-28.455,4.723 -27.909,4.446 -27.348,4.16C-18.282,-0.194 -9.925,-0.167 0,0Z" style="fill:rgb(219,122,85);fill-rule:nonzero;"/>
    </g>
    <g transform="matrix(1,0,0,1,98,192)">
        <path d="M0,0C2.409,1.53 4.818,3.06 7.227,4.59C12.295,7.167 17.277,7.12 22.875,7.063C24.027,7.053 25.18,7.044 26.367,7.035C27.67,7.018 27.67,7.018 29,7L29,12C43.081,16.245 56.948,18.716 71,13L75,13L75,16C66.716,17.845 58.784,18.318 50.313,18.25C48.456,18.239 48.456,18.239 46.563,18.227C33.066,18.069 20.69,16.543 7.759,12.589C3.847,11.124 3.847,11.124 0,12L0,0Z" style="fill:rgb(248,176,144);fill-rule:nonzero;"/>
    </g>
    <g transform="matrix(1,0,0,1,211,157)">
        <path d="M0,0L2,0C0.601,6.828 -3.809,12.51 -9,17L-11,17L-11,19L-13,19C-13.11,19.638 -13.219,20.276 -13.332,20.934C-13.491,21.76 -13.649,22.586 -13.813,23.438C-13.963,24.261 -14.114,25.085 -14.27,25.934C-14.511,26.616 -14.752,27.297 -15,28C-15.99,28.33 -16.98,28.66 -18,29C-18.66,28.67 -19.32,28.34 -20,28C-20.411,25.775 -20.411,25.775 -20.633,22.871C-20.717,21.837 -20.8,20.802 -20.887,19.736C-20.965,18.648 -21.044,17.559 -21.125,16.438C-21.211,15.345 -21.298,14.253 -21.387,13.127C-21.6,10.419 -21.801,7.709 -22,5C-17.71,5.33 -13.42,5.66 -9,6L-9,2C-6.949,1.772 -4.898,1.544 -2.848,1.316C-0.989,1.181 -0.989,1.181 0,0Z" style="fill:rgb(212,97,64);fill-rule:nonzero;"/>
    </g>
    <g transform="matrix(1,0,0,1,172.062,31.0625)">
        <path d="M0,0C1.938,1.938 1.938,1.938 2.5,5.438C1.938,8.938 1.938,8.938 -0.063,10.5C-0.723,10.974 -1.383,11.449 -2.063,11.938C-2.396,15.063 -2.396,15.063 -2.063,17.938C-5.127,19.47 -7.679,19.167 -11.063,18.938C-14,17.688 -14,17.688 -16.063,15.938L-16.063,11.938L-13.063,11.938L-13.063,8.938L-15.063,8.938C-15.393,6.298 -15.723,3.658 -16.063,0.938C-10.851,-2.029 -5.601,-1.943 0,0Z" style="fill:rgb(205,145,133);fill-rule:nonzero;"/>
    </g>
    <g transform="matrix(1,0,0,1,97,81)">
        <path d="M0,0C2.31,0.33 4.62,0.66 7,1L7,2L2,2C0.505,8.166 0.903,13.807 2,20C2.993,19.613 3.985,19.227 5.008,18.828C28.939,9.611 28.939,9.611 37,10C37.495,13.96 37.495,13.96 38,18L40,18L40,22C38.35,21.67 36.7,21.34 35,21C34.505,17.04 34.505,17.04 34,13C32.969,13.413 31.938,13.825 30.875,14.25C26.974,15.728 23.024,16.843 19,17.938C14.313,19.244 10.203,20.713 5.953,23.051C2.162,24.893 -1.942,25.902 -6,27L-6,33L-9,33C-8.67,31.35 -8.34,29.7 -8,28C-8.99,27.67 -9.98,27.34 -11,27C-10.505,25.515 -10.505,25.515 -10,24L-5,24L-5,22C-3.68,21.34 -2.36,20.68 -1,20C-1.335,19.29 -1.67,18.579 -2.016,17.848C-3.1,14.71 -3.097,12.718 -2.75,9.438C-2.619,8.043 -2.619,8.043 -2.484,6.621C-2.013,4.068 -1.286,2.239 0,0Z" style="fill:rgb(77,56,49);fill-rule:nonzero;"/>
    </g>
    <g transform="matrix(1,0,0,1,146,167)">
        <path d="M0,0L3,0C3.358,7.158 3.358,7.158 1.938,10.5C-0.961,12.744 -3.454,12.268 -7,12L-7,10C-18.385,9.505 -18.385,9.505 -30,9C-30,4 -30,4 -28,2C-21.959,0.416 -15.851,0.885 -10,3C-9.34,3.66 -8.68,4.32 -8,5C-5.497,4.983 -5.497,4.983 -3,4C-1.969,2.691 -0.965,1.359 0,0Z" style="fill:rgb(103,32,12);fill-rule:nonzero;"/>
    </g>
    <g transform="matrix(1,0,0,1,111,187)">
        <path d="M0,0C0.33,1.32 0.66,2.64 1,4C4.075,3.224 4.075,3.224 6,1C6.206,1.804 6.412,2.609 6.625,3.438C7.306,4.706 7.306,4.706 8,6C11.053,6.898 11.053,6.898 14,7L14,0C18.548,-0.178 21.879,0.002 26,2L26,4L24,4L24,6C22.481,6.486 20.96,6.963 19.438,7.438C18.591,7.704 17.744,7.971 16.871,8.246C10.427,9.938 5.456,10.037 -0.938,8.563C-1.621,8.415 -2.305,8.267 -3.01,8.115C-4.676,7.754 -6.338,7.379 -8,7C-8.33,5.35 -8.66,3.7 -9,2C-5.865,0.142 -3.625,-0.201 0,0Z" style="fill:rgb(251,236,232);fill-rule:nonzero;"/>
    </g>
    <g transform="matrix(1,0,0,1,95,190)">
        <path d="M0,0L2,0C2.193,1.169 2.387,2.338 2.586,3.543C2.849,5.091 3.112,6.639 3.375,8.188C3.501,8.956 3.628,9.725 3.758,10.518C4.459,14.604 5.386,18.162 7,22L7,25L9,25C9.973,26.504 9.973,26.504 11.063,28.563C14.678,34.638 20.219,38.146 26,42C22.845,42.936 20.034,43.106 16.75,43.063C15.858,43.053 14.966,43.044 14.047,43.035C13.371,43.024 12.696,43.012 12,43L12,42C14.475,41.505 14.475,41.505 17,41C16.495,40.518 15.989,40.036 15.469,39.539C14.819,38.907 14.169,38.276 13.5,37.625C12.85,36.999 12.201,36.372 11.531,35.727C10,34 10,34 10,32L8,32C6.563,30.023 6.563,30.023 5,27.375C4.484,26.516 3.969,25.658 3.438,24.773C0.398,18.91 -0.277,14.098 -0.125,7.625C-0.116,6.889 -0.107,6.153 -0.098,5.395C-0.074,3.596 -0.038,1.798 0,0Z" style="fill:rgb(155,67,42);fill-rule:nonzero;"/>
    </g>
    <g transform="matrix(1,0,0,1,143,188)">
        <path d="M0,0L0,3C-2.475,2.505 -2.475,2.505 -5,2L-5,0C-5.664,-0.061 -6.328,-0.121 -7.012,-0.184C-7.895,-0.267 -8.778,-0.351 -9.688,-0.438C-10.558,-0.519 -11.428,-0.6 -12.324,-0.684C-15,-1 -15,-1 -17.25,-1.555C-21.301,-2.211 -25.227,-1.92 -29.313,-1.688C-30.129,-1.652 -30.946,-1.617 -31.787,-1.58C-37.109,-1.296 -41.858,-0.385 -47,1C-50,1.125 -50,1.125 -52,1C-51,-2 -51,-2 -49.383,-3.117C-32.989,-9.191 -15.81,-5.596 0,0Z" style="fill:rgb(113,44,23);fill-rule:nonzero;"/>
    </g>
    <g transform="matrix(1,0,0,1,156,169)">
        <path d="M0,0C0.99,0.33 1.98,0.66 3,1C3.688,3.063 3.688,3.063 4,5L6,5L6,3C9.462,0.692 10.918,0.73 15,0.75C16.052,0.745 17.104,0.74 18.188,0.734C21,1 21,1 24,3L24,7C21.76,8.12 20.134,8.287 17.648,8.535C16.798,8.622 15.947,8.709 15.07,8.799C14.181,8.886 13.291,8.973 12.375,9.063C11.478,9.153 10.581,9.244 9.656,9.338C7.438,9.562 5.219,9.783 3,10C-0.223,4.824 -0.223,4.824 -1,3C-0.67,2.01 -0.34,1.02 0,0Z" style="fill:rgb(101,31,11);fill-rule:nonzero;"/>
    </g>
    <g transform="matrix(1,0,0,1,123.75,175.938)">
        <path d="M0,0C1.756,0.014 1.756,0.014 3.547,0.027C4.439,0.039 5.331,0.051 6.25,0.063C6.229,0.826 6.209,1.589 6.188,2.375C6.121,5.164 6.121,5.164 7.25,8.063C6.644,7.99 6.038,7.918 5.414,7.844C-4.785,6.714 -14.546,7.081 -24.75,8.063L-24.75,5.063C-21.75,4.063 -21.75,4.063 -18.75,4.063C-17.422,3.629 -16.109,3.145 -14.813,2.625C-9.669,0.573 -5.591,-0.056 0,0Z" style="fill:rgb(241,171,140);fill-rule:nonzero;"/>
    </g>
    <g transform="matrix(1,0,0,1,41,156)">
        <path d="M0,0L1,0C1.33,3.96 1.66,7.92 2,12C6.742,10.187 6.742,10.187 10,7C10.66,8.32 11.32,9.64 12,11C15.075,10.224 15.075,10.224 17,8C18.313,10.955 19.45,13.805 20,17C18.188,20.063 18.188,20.063 16,22C14,20 14,20 13,17C11.02,17.99 9.04,18.98 7,20L7,17C4.532,18.152 2.952,19.048 1,21C-0.112,16.562 -0.115,12.23 -0.063,7.688C-0.058,6.947 -0.053,6.206 -0.049,5.443C-0.037,3.629 -0.019,1.814 0,0ZM8,14L9,16L8,14Z" style="fill:rgb(159,214,199);fill-rule:nonzero;"/>
    </g>
    <g transform="matrix(1,0,0,1,157,217)">
        <path d="M0,0C2.875,2.313 2.875,2.313 5,5L5,8C2.368,9.316 0.062,9.011 -2.824,8.969C-5.95,9.014 -8.919,9.486 -12,10L-12,8L-14,8C-13.938,5.688 -13.938,5.688 -13,3C-8.708,0.559 -4.923,-0.856 0,0Z" style="fill:rgb(203,110,86);fill-rule:nonzero;"/>
    </g>
    <g transform="matrix(1,0,0,1,91,112)">
        <path d="M0,0C1.906,3.212 2.223,5.539 2.125,9.25C2.107,10.142 2.089,11.034 2.07,11.953C2.047,12.629 2.024,13.304 2,14C-0.248,14.983 -2.499,15.961 -4.75,16.938C-5.701,17.354 -5.701,17.354 -6.672,17.779C-9.744,19.107 -12.71,20.344 -16,21C-15.67,22.052 -15.34,23.104 -15,24.188C-14.16,27.389 -13.802,29.741 -14,33C-15.65,32.34 -17.3,31.68 -19,31C-19.195,29.209 -19.381,27.417 -19.563,25.625C-19.667,24.627 -19.771,23.63 -19.879,22.602C-20,20 -20,20 -19,18C-16.934,17.367 -16.934,17.367 -14.438,16.875C-13.611,16.707 -12.785,16.54 -11.934,16.367C-11.296,16.246 -10.657,16.125 -10,16L-10,14C-7.36,13.01 -4.72,12.02 -2,11C-1.67,8.69 -1.34,6.38 -1,4C-2.32,3.67 -3.64,3.34 -5,3C-3.35,2.67 -1.7,2.34 0,2L0,0Z" style="fill:rgb(125,108,100);fill-rule:nonzero;"/>
    </g>
    <g transform="matrix(1,0,0,1,134,188)">
        <path d="M0,0L4,0C4.495,0.99 4.495,0.99 5,2C5.99,2.66 6.98,3.32 8,4C-1.933,10.473 -10.282,13.509 -22.238,11.652C-26.276,10.747 -29.639,9.416 -33,7L-33,6C-31.312,6.143 -29.625,6.29 -27.938,6.438C-26.923,6.524 -25.909,6.61 -24.863,6.699C-22,7 -22,7 -18.625,7.75C-13.759,8.086 -9.586,6.909 -4.891,5.691C-2,5 -2,5 1,5L1,3L3,3L3,1C2.01,0.67 1.02,0.34 0,0Z" style="fill:rgb(223,130,94);fill-rule:nonzero;"/>
    </g>
    <g transform="matrix(1,0,0,1,190,43)">
        <path d="M0,0C0.945,0.294 1.89,0.588 2.863,0.891C3.857,1.215 4.851,1.54 5.875,1.875C6.821,2.182 7.767,2.489 8.742,2.805C11,4 11,4 11.82,6.133C11.88,6.749 11.939,7.365 12,8C5.786,8.276 0.079,7.226 -6,6C-6.967,5.809 -7.934,5.618 -8.93,5.422C-11.288,4.954 -13.644,4.48 -16,4C-9.931,-1.057 -7.578,-2.706 0,0Z" style="fill:rgb(207,153,85);fill-rule:nonzero;"/>
    </g>
    <g transform="matrix(1,0,0,1,173,75)">
        <path d="M0,0L7,0C11.092,7.641 13.883,13.214 12,22C11.67,20.68 11.34,19.36 11,18L7,18C6.67,15.69 6.34,13.38 6,11L4,11L4,16L1,16C1.012,15.096 1.023,14.193 1.035,13.262C1.044,12.082 1.053,10.903 1.063,9.688C1.074,8.516 1.086,7.344 1.098,6.137C1.149,2.969 1.149,2.969 0,0Z" style="fill:rgb(102,90,86);fill-rule:nonzero;"/>
    </g>
    <g transform="matrix(1,0,0,1,85,73)">
        <path d="M0,0C2.475,0.99 2.475,0.99 5,2L5,4C6.176,4.464 6.176,4.464 7.375,4.938C10,6 10,6 12,7C11.34,10.63 10.68,14.26 10,18C9.34,17.34 8.68,16.68 8,16C8.33,15.34 8.66,14.68 9,14C8.134,13.732 7.268,13.464 6.375,13.188C3.008,12.003 0.027,10.901 -3,9C-4.125,6.563 -4.125,6.563 -4,4C-2.063,1.688 -2.063,1.688 0,0Z" style="fill:rgb(104,92,88);fill-rule:nonzero;"/>
    </g>
    <g transform="matrix(1,0,0,1,128,186)">
        <path d="M0,0C-0.99,0.33 -1.98,0.66 -3,1C-2.814,1.784 -2.629,2.568 -2.438,3.375C-2,6 -2,6 -3,8C-8.415,8.369 -8.415,8.369 -11.375,6.5C-11.911,6.005 -12.448,5.51 -13,5C-14.98,5.99 -14.98,5.99 -17,7C-17.33,5.35 -17.66,3.7 -18,2C-23.015,2.33 -23.015,2.33 -27,5C-27.66,4.67 -28.32,4.34 -29,4L-29,1C-26.501,0.66 -24.001,0.328 -21.5,0C-20.804,-0.095 -20.108,-0.191 -19.391,-0.289C-12.871,-1.134 -6.449,-1.612 0,0Z" style="fill:rgb(227,212,207);fill-rule:nonzero;"/>
    </g>
    <g transform="matrix(1,0,0,1,196,185)">
        <path d="M0,0L0,6C-0.495,5.01 -0.495,5.01 -1,4C-2.654,3.608 -4.323,3.279 -6,3C-6.99,2.67 -7.98,2.34 -9,2C-19.21,1.431 -28.432,2.403 -38,6L-38,3C-27.538,-5.174 -11.996,-2.421 0,0Z" style="fill:rgb(123,57,37);fill-rule:nonzero;"/>
    </g>
    <g transform="matrix(1,0,0,1,139,92)">
        <path d="M0,0L1,0C1.71,5.53 2.303,10.5 1,16L-1,16C-1.021,16.909 -1.021,16.909 -1.043,17.836C-1.436,24.737 -3.12,30.234 -7,36C-9.5,38 -9.5,38 -12,39C-13.392,39.588 -13.392,39.588 -14.813,40.188C-15.534,40.456 -16.256,40.724 -17,41C-16.258,40.299 -15.515,39.597 -14.75,38.875C-6.829,30.594 -4.235,20.569 -2.438,9.492C-1.865,6.234 -0.982,3.156 0,0Z" style="fill:rgb(153,69,45);fill-rule:nonzero;"/>
    </g>
    <g transform="matrix(1,0,0,1,179,149)">
        <path d="M0,0C1.75,0.125 1.75,0.125 4,1C11.923,10.364 12.19,23.32 12,35L5,35C6.98,34.505 6.98,34.505 9,34C8.352,29.664 7.681,25.331 7,21C6.844,19.976 6.688,18.953 6.527,17.898C5.683,12.747 4.672,8.565 2,4C1.333,2.667 0.667,1.333 0,0Z" style="fill:rgb(156,52,24);fill-rule:nonzero;"/>
    </g>
    <g transform="matrix(1,0,0,1,152,64)">
        <path d="M0,0C0.33,1.32 0.66,2.64 1,4C2.072,4.103 3.145,4.206 4.25,4.313C7.919,4.985 9.418,5.418 12,8C15.06,12.898 14.513,18.426 14,24C13.244,26.37 12.389,27.916 11,30C9.68,29.34 8.36,28.68 7,28L9,28C10.792,22.624 10.855,15.397 9,10C5.83,7.887 5.108,7.767 1.5,7.875C0.727,7.893 -0.047,7.911 -0.844,7.93C-1.555,7.953 -2.267,7.976 -3,8L-6,8C-4.793,7.134 -4.793,7.134 -3.563,6.25C-1.021,4.019 -0.349,3.255 0,0Z" style="fill:rgb(83,68,62);fill-rule:nonzero;"/>
    </g>
    <g transform="matrix(1,0,0,1,181.688,185.812)">
        <path d="M0,0C0.994,0.027 1.988,0.054 3.012,0.082C4.151,0.134 4.151,0.134 5.313,0.188C5.063,3.063 5.063,3.063 4.313,6.188C2.25,7.563 2.25,7.563 0.313,8.188L0.313,10.188C-3.635,10.367 -6.286,10.281 -9.688,8.188C-9.338,5.6 -9.036,3.674 -7.5,1.531C-4.953,-0.357 -3.129,-0.11 0,0Z" style="fill:rgb(254,243,240);fill-rule:nonzero;"/>
    </g>
    <g transform="matrix(1,0,0,1,190,190)">
        <path d="M0,0C2.543,4.494 2.423,8.498 2.438,13.563C2.441,14.455 2.445,15.348 2.449,16.269C2.325,23.376 0.885,28.951 -3,35L-9,35C-7.515,34.505 -7.515,34.505 -6,34C-5.349,32.153 -5.349,32.153 -5,30C-4.498,28.622 -3.99,27.245 -3.477,25.871C-1.806,20.916 -1.489,16.26 -1.375,11.063C-1.324,9.387 -1.27,7.711 -1.211,6.035C-1.193,5.307 -1.176,4.579 -1.158,3.828C-1,2 -1,2 0,0Z" style="fill:rgb(152,54,28);fill-rule:nonzero;"/>
    </g>
    <g transform="matrix(1,0,0,1,161.988,29.6016)">
        <path d="M0,0C8.701,0.088 8.701,0.088 12.012,3.398C12.699,6.836 12.699,6.836 12.012,10.398C9.449,12.898 9.449,12.898 6.012,14.398C2.137,14.148 2.137,14.148 -0.988,13.398L-0.988,11.398C1.652,11.068 4.292,10.738 7.012,10.398L7.012,3.398C3.611,3.503 3.611,3.503 0.012,4.398C-1.906,6.842 -1.906,6.842 -2.988,9.398L-3.988,9.398C-4.367,0.875 -4.367,0.875 0,0Z" style="fill:rgb(233,216,198);fill-rule:nonzero;"/>
    </g>
    <g transform="matrix(1,0,0,1,169,60.5)">
        <path d="M0,0C0.66,0.495 1.32,0.99 2,1.5C1.67,3.15 1.34,4.8 1,6.5C0.479,6.336 -0.042,6.173 -0.578,6.004C-3.676,5.359 -6.588,5.406 -9.75,5.438C-11.506,5.451 -11.506,5.451 -13.297,5.465C-14.189,5.476 -15.081,5.488 -16,5.5C-15.195,0.664 -15.195,0.664 -13.438,-0.813C-8.515,-2.201 -4.521,-2.261 0,0Z" style="fill:rgb(218,212,209);fill-rule:nonzero;"/>
    </g>
    <g transform="matrix(1,0,0,1,174,187)">
        <path d="M0,0C-0.021,0.969 -0.041,1.939 -0.063,2.938C-0.356,5.875 -0.356,5.875 1,7C2.328,8.006 3.662,9.007 5,10C-0.842,10.351 -4.853,10.167 -10,7L-10,5C-10.66,4.67 -11.32,4.34 -12,4C-8.078,-0.1 -5.684,-0.105 0,0Z" style="fill:rgb(227,213,207);fill-rule:nonzero;"/>
    </g>
    <g transform="matrix(1,0,0,1,187,174)">
        <path d="M0,0L1,0L1,9C-9.395,9.495 -9.395,9.495 -20,10C-19.34,7.69 -18.68,5.38 -18,3L-12,3L-12,4C-8.04,4.33 -4.08,4.66 0,5L0,0Z" style="fill:rgb(234,164,135);fill-rule:nonzero;"/>
    </g>
    <g transform="matrix(1,0,0,1,122,140)">
        <path d="M0,0C0.688,2.063 0.688,2.063 1,4C0.285,3.841 -0.431,3.683 -1.168,3.52C-8.489,2.177 -14.844,2.185 -21.344,6.027C-23,7 -23,7 -26,8L-26,10L-28,10C-28,6 -28,6 -26,3.938C-18.153,-1.131 -9.068,-3.023 0,0Z" style="fill:rgb(250,148,118);fill-rule:nonzero;"/>
    </g>
    <g transform="matrix(1,0,0,1,171,103)">
        <path d="M0,0C0.99,0.33 1.98,0.66 3,1C2.76,2.029 2.76,2.029 2.516,3.078C1.942,6.329 1.853,9.452 1.75,12.75C1.345,19.274 -0.21,23.713 -4,29C-4.99,28.67 -5.98,28.34 -7,28C-6.723,27.345 -6.446,26.69 -6.16,26.016C-3.362,18.966 -2.264,12.565 -2,5L-1,5C-0.67,3.35 -0.34,1.7 0,0Z" style="fill:rgb(160,66,39);fill-rule:nonzero;"/>
    </g>
    <g transform="matrix(1,0,0,1,113.875,154.875)">
        <path d="M0,0C1.152,0.018 2.305,0.036 3.492,0.055C4.361,0.078 5.23,0.101 6.125,0.125L6.125,3.125C5.519,3.151 4.913,3.177 4.289,3.203C-1.644,3.605 -6.411,4.87 -11.844,7.285C-13.875,8.125 -13.875,8.125 -15.875,8.125C-16.205,8.785 -16.535,9.445 -16.875,10.125C-17.205,8.805 -17.535,7.485 -17.875,6.125C-12.248,1.16 -7.446,-0.152 0,0Z" style="fill:rgb(248,146,116);fill-rule:nonzero;"/>
    </g>
    <g transform="matrix(1,0,0,1,125,187)">
        <path d="M0,0C4.548,-0.178 7.879,0.002 12,2L12,4L10,4L10,6C4.342,7.81 -1.087,9.357 -7,10L-7,7L0,7L0,0Z" style="fill:rgb(244,230,225);fill-rule:nonzero;"/>
    </g>
    <g transform="matrix(1,0,0,1,188,195)">
        <path d="M0,0C0.313,2.25 0.313,2.25 0,5C-4.108,9 -4.108,9 -7,9L-7,14C-8.32,14.33 -9.64,14.66 -11,15C-11.33,12.03 -11.66,9.06 -12,6C-9.021,4.535 -9.021,4.535 -6.043,3.07C-0.182,0 -0.182,0 0,0Z" style="fill:rgb(248,176,144);fill-rule:nonzero;"/>
    </g>
    <g transform="matrix(1,0,0,1,42,177)">
        <path d="M0,0L1,0C1.159,0.704 1.317,1.408 1.48,2.133C3.421,10.343 6.047,18.109 9,26C5.341,25.45 5.341,25.45 3.84,23.469C-2,10.727 -2,10.727 -2,4L0,4L0,0Z" style="fill:rgb(15,21,20);fill-rule:nonzero;"/>
    </g>
    <g transform="matrix(1,0,0,1,149,38)">
        <path d="M0,0L1,0C1.121,0.857 1.242,1.714 1.367,2.598C2.357,9.86 2.357,9.86 4.188,16.938C5.539,22.031 4.266,26.334 2,31C1.34,31.33 0.68,31.66 0,32C-1.125,28.25 -1.125,28.25 0,26C0.138,22.488 0.049,19.277 -0.563,15.813C-1.176,10.467 -0.569,5.334 0,0Z" style="fill:rgb(13,12,11);fill-rule:nonzero;"/>
    </g>
    <g transform="matrix(1,0,0,1,130,225)">
        <path d="M0,0L4,0C4.33,2.64 4.66,5.28 5,8L6,8C6.33,6.02 6.66,4.04 7,2L11,2C11.125,5.375 11.125,5.375 11,9C10.34,9.66 9.68,10.32 9,11C2.538,10.538 2.538,10.538 0,8C-0.27,5.312 -0.087,2.709 0,0Z" style="fill:rgb(235,236,236);fill-rule:nonzero;"/>
    </g>
    <g transform="matrix(1,0,0,1,80,194)">
        <path d="M0,0L3,0C3.289,1.134 3.578,2.269 3.875,3.438C4.246,4.613 4.618,5.789 5,7C5.66,7.33 6.32,7.66 7,8C9.5,5.826 10.436,4.27 11,1L14,1C13.25,8.75 13.25,8.75 11,11C7.145,11.428 4.872,11.559 1.563,9.438C-0.525,6.181 -0.292,3.79 0,0Z" style="fill:rgb(228,230,232);fill-rule:nonzero;"/>
    </g>
    <g transform="matrix(1,0,0,1,147,157)">
        <path d="M0,0L3,0C3.268,1.134 3.536,2.269 3.813,3.438C4.4,5.201 4.4,5.201 5,7C5.99,7.33 6.98,7.66 8,8C8.66,6.02 9.32,4.04 10,2L13,2C13.25,8.625 13.25,8.625 11,12C7.563,12.438 7.563,12.438 4,12C1.109,9.687 0.78,7.265 0.313,3.75C0.209,2.513 0.106,1.275 0,0Z" style="fill:rgb(234,234,234);fill-rule:nonzero;"/>
    </g>
    <g transform="matrix(1,0,0,1,174,199)">
        <path d="M0,0L3,0L3,11C3.99,10.67 4.98,10.34 6,10C6.733,7.985 6.733,7.985 7,6C7.99,6.33 8.98,6.66 10,7C9.453,10.375 8.945,12.082 7,15C5.125,14.75 5.125,14.75 3,14C1.75,11.938 1.75,11.938 1,10L-1,10C-1.125,2.25 -1.125,2.25 0,0Z" style="fill:rgb(231,237,240);fill-rule:nonzero;"/>
    </g>
    <g transform="matrix(1,0,0,1,162,196)">
        <path d="M0,0C5.94,1.485 5.94,1.485 12,3C11.67,4.98 11.34,6.96 11,9C8.36,8.67 5.72,8.34 3,8L3,6C1.35,6.33 -0.3,6.66 -2,7L-2,5L0,5L0,0Z" style="fill:rgb(238,148,111);fill-rule:nonzero;"/>
    </g>
    <g transform="matrix(1,0,0,1,97,81)">
        <path d="M0,0C2.31,0.33 4.62,0.66 7,1L7,2L2,2C0.543,8.011 0.566,13.979 2,20C2.66,20.33 3.32,20.66 4,21C2.35,21.33 0.7,21.66 -1,22C-3.473,15.453 -3.878,8.184 -0.953,1.668C-0.639,1.118 -0.324,0.567 0,0Z" style="fill:rgb(83,68,62);fill-rule:nonzero;"/>
    </g>
    <g transform="matrix(1,0,0,1,106,207)">
        <path d="M0,0L3,0C3.248,1.114 3.495,2.228 3.75,3.375C4.61,7.046 4.61,7.046 7.125,8.438C7.744,8.623 8.363,8.809 9,9L9,5L12,5C12.125,7.375 12.125,7.375 12,10C10,12 10,12 7.125,12.375C4,12 4,12 1.625,10.5C-0.736,6.867 -0.285,4.282 0,0Z" style="fill:rgb(232,239,242);fill-rule:nonzero;"/>
    </g>
    <g transform="matrix(1,0,0,1,158,139)">
        <path d="M0,0L3,0C2.513,4.222 0.112,7.27 -3,10C-7.17,12.266 -11.223,13.448 -16,13C-16.33,12.34 -16.66,11.68 -17,11C-16.147,10.78 -16.147,10.78 -15.277,10.555C-9.391,8.845 -5.208,6.496 -1,2C-0.67,1.34 -0.34,0.68 0,0Z" style="fill:rgb(249,146,117);fill-rule:nonzero;"/>
    </g>
    <g transform="matrix(1,0,0,1,151,217)">
        <path d="M0,0C2.688,-0.313 2.688,-0.313 6,0C8.875,2.313 8.875,2.313 11,5L11,8C8.237,9.381 6.053,9.191 3,9C2.34,8.34 1.68,7.68 1,7C1.99,6.34 2.98,5.68 4,5C1.525,4.01 1.525,4.01 -1,3C-0.67,2.01 -0.34,1.02 0,0Z" style="fill:rgb(191,95,75);fill-rule:nonzero;"/>
    </g>
    <g transform="matrix(1,0,0,1,144,132)">
        <path d="M0,0L3,0C2.42,3.255 1.474,4.937 -0.875,7.25C-1.388,7.771 -1.901,8.292 -2.43,8.828C-4,10 -4,10 -7,10L-7,12C-9.906,13.257 -11.796,14 -15,14L-15,12C-13.253,10.787 -11.451,9.654 -9.625,8.563C-5.211,5.937 -5.211,5.937 -2,2L0,2L0,0Z" style="fill:rgb(250,148,118);fill-rule:nonzero;"/>
    </g>
    <g transform="matrix(1,0,0,1,134,188)">
        <path d="M0,0L4,0C4.33,0.66 4.66,1.32 5,2C5.99,2.66 6.98,3.32 8,4C1.825,8.251 -2.414,10.843 -10,10C-9.67,9.01 -9.34,8.02 -9,7C-4.05,6.01 -4.05,6.01 1,5L1,3L3,3L3,1C2.01,0.67 1.02,0.34 0,0Z" style="fill:rgb(221,123,86);fill-rule:nonzero;"/>
    </g>
    <g transform="matrix(1,0,0,1,142,194)">
        <path d="M0,0C0.99,0.33 1.98,0.66 3,1L3,9L0,9C-0.33,8.34 -0.66,7.68 -1,7C-1.598,7.33 -2.196,7.66 -2.813,8C-5,9 -5,9 -8,9L-8,6C-6.355,4.359 -6.355,4.359 -4.188,2.75C-3.48,2.209 -2.772,1.667 -2.043,1.109C-1.369,0.743 -0.695,0.377 0,0Z" style="fill:rgb(221,119,81);fill-rule:nonzero;"/>
    </g>
    <g transform="matrix(1,0,0,1,110,101)">
        <path d="M0,0L3,0C3.674,2.081 4.339,4.165 5,6.25C5.371,7.41 5.743,8.57 6.125,9.766C7,13 7,13 7,17L4,17C1.904,11.306 0.55,6.048 0,0Z" style="fill:rgb(215,200,195);fill-rule:nonzero;"/>
    </g>
    <g transform="matrix(1,0,0,1,103.75,183.875)">
        <path d="M0,0C0.697,0.009 1.395,0.018 2.113,0.027C3.826,0.051 5.538,0.087 7.25,0.125L7.25,2.125C-6.383,4.237 -6.383,4.237 -12.75,5.125C-11.75,2.125 -11.75,2.125 -10.172,0.945C-6.787,-0.201 -3.526,-0.087 0,0Z" style="fill:rgb(104,34,14);fill-rule:nonzero;"/>
    </g>
    <g transform="matrix(1,0,0,1,191,44)">
        <path d="M0,0C1.651,0.396 3.296,0.817 4.938,1.25C5.854,1.482 6.771,1.714 7.715,1.953C10,3 10,3 10.816,5.109C10.877,5.733 10.938,6.357 11,7C5.367,7.24 0.455,6.385 -5,5C-1.25,3 -1.25,3 1,3C0.67,2.01 0.34,1.02 0,0Z" style="fill:rgb(144,97,39);fill-rule:nonzero;"/>
    </g>
    <g transform="matrix(1,0,0,1,190,190)">
        <path d="M0,0C2.395,3.707 2.299,7.358 2.25,11.625C2.258,12.306 2.265,12.986 2.273,13.688C2.253,18.747 2.253,18.747 0,21C-2.128,14.366 -3.246,6.491 0,0Z" style="fill:rgb(155,48,19);fill-rule:nonzero;"/>
    </g>
    <g transform="matrix(1,0,0,1,187,165)">
        <path d="M0,0C0.99,0.33 1.98,0.66 3,1C4.071,7.026 4.099,12.889 4,19L-3,19C-1.68,18.67 -0.36,18.34 1,18C1.027,15.562 1.047,13.125 1.063,10.688C1.071,9.997 1.079,9.307 1.088,8.596C1.103,5.452 1.002,3.006 0,0Z" style="fill:rgb(157,54,26);fill-rule:nonzero;"/>
    </g>
    <g transform="matrix(1,0,0,1,96,107)">
        <path d="M0,0C0.99,0.33 1.98,0.66 3,1C3.949,3.617 3.949,3.617 4.688,6.875C5.065,8.48 5.065,8.48 5.449,10.117C6,13 6,13 6,16L3,16C2.297,14.277 1.613,12.546 0.938,10.813C0.555,9.85 0.172,8.887 -0.223,7.895C-1.056,4.791 -0.887,3.051 0,0Z" style="fill:rgb(215,200,194);fill-rule:nonzero;"/>
    </g>
    <g transform="matrix(1,0,0,1,165.562,32.9375)">
        <path d="M0,0C1.134,0.021 2.269,0.041 3.438,0.063C3.108,2.373 2.778,4.683 2.438,7.063L-3.563,7.063C-3.944,5.071 -4.276,3.07 -4.563,1.063C-3.563,0.063 -3.563,0.063 0,0Z" style="fill:rgb(15,13,12);fill-rule:nonzero;"/>
    </g>
    <g transform="matrix(1,0,0,1,124,97)">
        <path d="M0,0L3,0C3.839,2.102 4.671,4.206 5.5,6.313C6.196,8.07 6.196,8.07 6.906,9.863C8,13 8,13 8,16L5,16C4.35,14.273 3.705,12.543 3.063,10.813C2.523,9.368 2.523,9.368 1.973,7.895C1.088,5.263 0.474,2.731 0,0Z" style="fill:rgb(216,200,195);fill-rule:nonzero;"/>
    </g>
    <g transform="matrix(1,0,0,1,181.688,185.812)">
        <path d="M0,0C0.994,0.027 1.988,0.054 3.012,0.082C4.151,0.134 4.151,0.134 5.313,0.188L5.313,1.188C3.003,1.518 0.693,1.847 -1.688,2.188L-1.688,5.188C-4,7.438 -4,7.438 -6.688,9.188C-7.678,8.858 -8.668,8.528 -9.688,8.188C-9.338,5.6 -9.036,3.674 -7.5,1.531C-4.953,-0.357 -3.129,-0.11 0,0Z" style="fill:rgb(251,240,237);fill-rule:nonzero;"/>
    </g>
    <g transform="matrix(1,0,0,1,121.438,186.812)">
        <path d="M0,0C2.563,0.188 2.563,0.188 4.563,2.188C4.188,4.813 4.188,4.813 3.563,7.188C1.563,7.23 -0.438,7.228 -2.438,7.188C-3.438,6.188 -3.438,6.188 -3.563,3.688C-3.396,0.357 -3.315,0.255 0,0Z" style="fill:rgb(12,11,11);fill-rule:nonzero;"/>
    </g>
    <g transform="matrix(1,0,0,1,80,78)">
        <path d="M0,0C0.248,0.639 0.495,1.279 0.75,1.938C1.775,4.161 1.775,4.161 3.813,4.5C4.895,4.747 4.895,4.747 6,5C7.434,5.651 8.851,6.34 10.25,7.063C10.956,7.425 11.663,7.787 12.391,8.16C12.922,8.437 13.453,8.714 14,9C13.67,9.99 13.34,10.98 13,12C8.806,11.329 5.597,9.144 2,7L2,5L-1,5C-0.67,3.35 -0.34,1.7 0,0Z" style="fill:rgb(77,63,57);fill-rule:nonzero;"/>
    </g>
    <g transform="matrix(1,0,0,1,183,82)">
        <path d="M0,0C2.788,4.182 3.206,7.409 2.563,12.375C2.377,13.241 2.191,14.108 2,15C1.67,13.68 1.34,12.36 1,11L-3,11C-2.886,9.353 -2.759,7.708 -2.625,6.063C-2.555,5.146 -2.486,4.229 -2.414,3.285C-2.277,2.531 -2.141,1.777 -2,1C-1.34,0.67 -0.68,0.34 0,0Z" style="fill:rgb(87,73,68);fill-rule:nonzero;"/>
    </g>
    <g transform="matrix(1,0,0,1,188,158)">
        <path d="M0,0C4.62,0.66 9.24,1.32 14,2L14,5C12.229,5.027 10.458,5.046 8.688,5.063C7.701,5.074 6.715,5.086 5.699,5.098C3,5 3,5 0,4L0,0Z" style="fill:rgb(248,146,116);fill-rule:nonzero;"/>
    </g>
    <g transform="matrix(1,0,0,1,51,163)">
        <path d="M0,0C0.99,1.485 0.99,1.485 2,3L0,3L0,0ZM-10,-7L-9,-7C-8.67,-3.04 -8.34,0.92 -8,5C-3.197,3.46 -3.197,3.46 -1,1C-0.67,1.99 -0.34,2.98 0,4C-2.127,6.339 -4.062,7.807 -7,9L-10,9L-10,-7Z" style="fill:rgb(146,199,185);fill-rule:nonzero;"/>
    </g>
    <g transform="matrix(1,0,0,1,173,46)">
        <path d="M0,0C4.29,0.99 8.58,1.98 13,3C12.01,4.485 12.01,4.485 11,6C5.06,5.01 5.06,5.01 -1,4C-0.67,2.68 -0.34,1.36 0,0Z" style="fill:rgb(156,106,41);fill-rule:nonzero;"/>
    </g>
    <g transform="matrix(1,0,0,1,78,88)">
        <path d="M0,0C0.33,0.99 0.66,1.98 1,3C3.792,4.033 3.792,4.033 7.063,4.688C8.72,5.065 8.72,5.065 10.41,5.449C11.265,5.631 12.119,5.813 13,6L13,9C9.37,8.34 5.74,7.68 2,7C1.67,7.99 1.34,8.98 1,10C0.67,6.7 0.34,3.4 0,0Z" style="fill:rgb(84,69,64);fill-rule:nonzero;"/>
    </g>
    <g transform="matrix(1,0,0,1,173,75)">
        <path d="M0,0C1.32,0.33 2.64,0.66 4,1C5.333,11.558 5.333,11.558 4,16L1,16C1.012,15.096 1.023,14.193 1.035,13.262C1.044,12.082 1.053,10.903 1.063,9.688C1.074,8.516 1.086,7.344 1.098,6.137C1.149,2.969 1.149,2.969 0,0Z" style="fill:rgb(84,68,62);fill-rule:nonzero;"/>
    </g>
    <g transform="matrix(1,0,0,1,182,184)">
        <path d="M0,0C9.41,-0.185 9.41,-0.185 14,1L14,7C13.67,6.34 13.34,5.68 13,5C11.348,4.6 9.676,4.285 8,4C5.326,3.361 2.665,2.677 0,2L0,0Z" style="fill:rgb(98,31,11);fill-rule:nonzero;"/>
    </g>
    <g transform="matrix(1,0,0,1,62,131)">
        <path d="M0,0C-0.25,3.375 -0.25,3.375 -1,7C-3.169,8.609 -4.319,9 -7,9C-6.393,3.536 -6.393,3.536 -4.625,1.125C-3,0 -3,0 0,0Z" style="fill:rgb(158,217,203);fill-rule:nonzero;"/>
    </g>
    <g transform="matrix(1,0,0,1,73,132)">
        <path d="M0,0C2.916,4.374 4.303,7.705 4,13C1.525,12.01 1.525,12.01 -1,11C-1.027,9.354 -1.046,7.708 -1.063,6.063C-1.074,5.146 -1.086,4.229 -1.098,3.285C-1,1 -1,1 0,0Z" style="fill:rgb(133,129,121);fill-rule:nonzero;"/>
    </g>
    <g transform="matrix(1,0,0,1,157,31)">
        <path d="M0,0C0.99,0.33 1.98,0.66 3,1C2.67,1.33 2.34,1.66 2,2C1.959,3.666 1.957,5.334 2,7C2.66,6.34 3.32,5.68 4,5C4.33,6.32 4.66,7.64 5,9L11,9C11.33,7.35 11.66,5.7 12,4L13,4C13.043,5.666 13.041,7.334 13,9C11.446,10.554 9.772,10.42 7.625,10.688C6.438,10.848 6.438,10.848 5.227,11.012C3,11 3,11 0,9C-0.77,6.31 -0.821,3.819 -1,1C-0.67,0.67 -0.34,0.34 0,0Z" style="fill:rgb(175,159,148);fill-rule:nonzero;"/>
    </g>
    <g transform="matrix(1,0,0,1,168,188)">
        <path d="M0,0C2.97,0.495 2.97,0.495 6,1C5.67,2.65 5.34,4.3 5,6C3.125,6.625 3.125,6.625 1,7C0.34,6.34 -0.32,5.68 -1,5C-0.625,2.375 -0.625,2.375 0,0Z" style="fill:rgb(28,26,25);fill-rule:nonzero;"/>
    </g>
    <g transform="matrix(1,0,0,1,155,116)">
        <path d="M0,0C0.66,0.33 1.32,0.66 2,1C1.679,4.531 1.349,6.558 -0.875,9.375C-3,11 -3,11 -6,11C-6,8 -6,8 -4.563,6.5C-4.047,6.005 -3.531,5.51 -3,5C-2.67,4.01 -2.34,3.02 -2,2L0,2L0,0Z" style="fill:rgb(151,61,35);fill-rule:nonzero;"/>
    </g>
    <g transform="matrix(1,0,0,1,79,224)">
        <path d="M0,0C10.838,-0.92 10.838,-0.92 13.688,1.336C14.75,3 14.75,3 16,6C12,6 12,6 9.688,4.063C6.435,1.566 4.032,1.316 0,1L0,0Z" style="fill:rgb(35,16,11);fill-rule:nonzero;"/>
    </g>
    <g transform="matrix(1,0,0,1,91,195)">
        <path d="M0,0L3,0C2.512,6.055 2.512,6.055 2,8C-1,10 -1,10 -3.688,9.625C-4.451,9.419 -5.214,9.213 -6,9C-5,7 -5,7 -2,6C-0.775,2.992 -0.775,2.992 0,0Z" style="fill:rgb(226,215,212);fill-rule:nonzero;"/>
    </g>
    <g transform="matrix(1,0,0,1,171,183)">
        <path d="M0,0L13,0C12.01,0.495 12.01,0.495 11,1L11,3L-2,3C-1.34,2.67 -0.68,2.34 0,2L0,0Z" style="fill:rgb(115,44,24);fill-rule:nonzero;"/>
    </g>
    <g transform="matrix(1,0,0,1,91,112)">
        <path d="M0,0C1.906,3.212 2.223,5.539 2.125,9.25C2.107,10.142 2.089,11.034 2.07,11.953C2.036,12.966 2.036,12.966 2,14C0.68,13.01 -0.64,12.02 -2,11C-1.67,8.69 -1.34,6.38 -1,4C-2.32,3.67 -3.64,3.34 -5,3C-3.35,2.67 -1.7,2.34 0,2L0,0Z" style="fill:rgb(115,100,93);fill-rule:nonzero;"/>
    </g>
    <g transform="matrix(1,0,0,1,103.125,157.125)">
        <path d="M0,0C1.875,0.875 1.875,0.875 4.875,2.875C4.165,3.068 3.454,3.262 2.723,3.461C1.344,3.852 1.344,3.852 -0.063,4.25C-1.437,4.633 -1.437,4.633 -2.84,5.023C-5.292,5.642 -5.292,5.642 -6.125,7.875C-6.455,6.555 -6.785,5.235 -7.125,3.875C-2.723,-0.16 -2.723,-0.16 0,0Z" style="fill:rgb(242,136,105);fill-rule:nonzero;"/>
    </g>
    <g transform="matrix(1,0,0,1,138,151)">
        <path d="M0,0C5.61,0.66 11.22,1.32 17,2C16.67,2.66 16.34,3.32 16,4C10.222,4.236 5.487,3.868 0,2L0,0Z" style="fill:rgb(146,58,33);fill-rule:nonzero;"/>
    </g>
    <g transform="matrix(1,0,0,1,193,107)">
        <path d="M0,0C0,3 0,3 -1.813,5.188C-4,7 -4,7 -7,7C-7.33,7.99 -7.66,8.98 -8,10C-8.66,9.67 -9.32,9.34 -10,9C-8.512,4.984 -4.568,0 0,0Z" style="fill:rgb(216,200,194);fill-rule:nonzero;"/>
    </g>
    <g transform="matrix(1,0,0,1,213,157)">
        <path d="M0,0C-0.313,1.875 -0.313,1.875 -1,4C-4.435,6.29 -5.985,6.178 -10,6L-10,3C-8.71,2.496 -7.418,1.997 -6.125,1.5C-5.046,1.082 -5.046,1.082 -3.945,0.656C-2,0 -2,0 0,0Z" style="fill:rgb(149,61,36);fill-rule:nonzero;"/>
    </g>
    <g transform="matrix(1,0,0,1,147,157)">
        <path d="M0,0L3,0C3.433,1.64 3.433,1.64 3.875,3.313C4.819,7.04 4.819,7.04 7,10L3,10C-0.006,6.994 0.404,4.176 0,0Z" style="fill:rgb(231,242,247);fill-rule:nonzero;"/>
    </g>
    <g transform="matrix(1,0,0,1,74,190)">
        <path d="M0,0C0.33,0.66 0.66,1.32 1,2C1.99,1.67 2.98,1.34 4,1C4,3 4,3 1.625,5.5C0.759,6.325 -0.108,7.15 -1,8C-1.66,8.66 -2.32,9.32 -3,10C-3.99,9.34 -4.98,8.68 -6,8C-4.719,6.293 -3.382,4.626 -2,3L0,3L0,0Z" style="fill:rgb(153,77,53);fill-rule:nonzero;"/>
    </g>
    <g transform="matrix(1,0,0,1,185,160)">
        <path d="M0,0C1.98,0.99 1.98,0.99 4,2C3.814,2.784 3.629,3.568 3.438,4.375C2.74,6.971 2.74,6.971 4,9C3.721,10.677 3.392,12.346 3,14C1.207,10.881 0.657,8.323 0.375,4.75C0.3,3.858 0.225,2.966 0.148,2.047C0.099,1.371 0.05,0.696 0,0Z" style="fill:rgb(165,64,36);fill-rule:nonzero;"/>
    </g>
    <g transform="matrix(1,0,0,1,166,61)">
        <path d="M0,0C1.65,0.33 3.3,0.66 5,1C4.67,2.65 4.34,4.3 4,6C2.02,5.34 0.04,4.68 -2,4C-1.34,2.68 -0.68,1.36 0,0Z" style="fill:rgb(222,216,213);fill-rule:nonzero;"/>
    </g>
    <g transform="matrix(1,0,0,1,169,122)">
        <path d="M0,0L1,0C0.25,6.625 0.25,6.625 -2,10C-2.99,9.67 -3.98,9.34 -5,9C-4.357,7.686 -3.71,6.374 -3.063,5.063C-2.703,4.332 -2.343,3.601 -1.973,2.848C-1,1 -1,1 0,0Z" style="fill:rgb(149,60,34);fill-rule:nonzero;"/>
    </g>
    <g transform="matrix(1,0,0,1,87,105)">
        <path d="M0,0L5,0C4.67,2.97 4.34,5.94 4,9L1,9C1.33,7.35 1.66,5.7 2,4C1.01,3.67 0.02,3.34 -1,3C-0.67,2.01 -0.34,1.02 0,0Z" style="fill:rgb(62,45,38);fill-rule:nonzero;"/>
    </g>
    <g transform="matrix(1,0,0,1,164,199)">
        <path d="M0,0C0.866,0.464 0.866,0.464 1.75,0.938C3.843,1.926 5.745,2.517 8,3C7.67,3.99 7.34,4.98 7,6C4.03,5.505 4.03,5.505 1,5L1,3L-1,3C-0.67,2.01 -0.34,1.02 0,0Z" style="fill:rgb(220,119,81);fill-rule:nonzero;"/>
    </g>
    <g transform="matrix(1,0,0,1,183,99)">
        <path d="M0,0C0.33,0.66 0.66,1.32 1,2C1.66,2.33 2.32,2.66 3,3C1.313,5.063 1.313,5.063 -1,7C-3.75,6.75 -3.75,6.75 -6,6C-4,4 -2,2 0,0Z" style="fill:rgb(70,52,46);fill-rule:nonzero;"/>
    </g>
    <g transform="matrix(1,0,0,1,183,188)">
        <path d="M0,0C2.063,0.438 2.063,0.438 4,1C2.625,3.5 2.625,3.5 1,6L-1,6L-1,8C-1.99,7.67 -2.98,7.34 -4,7L-2,7C-1.856,6.031 -1.711,5.061 -1.563,4.063C-1,1 -1,1 0,0Z" style="fill:rgb(249,230,224);fill-rule:nonzero;"/>
    </g>
    <g transform="matrix(1,0,0,1,198.062,46.9375)">
        <path d="M0,0C1.454,0.031 1.454,0.031 2.938,0.063C3.268,1.383 3.598,2.703 3.938,4.063L-3.063,4.063C-3.393,3.072 -3.723,2.083 -4.063,1.063C-3.063,0.063 -3.063,0.063 0,0Z" style="fill:rgb(183,134,74);fill-rule:nonzero;"/>
    </g>
    <g transform="matrix(1,0,0,1,156,169)">
        <path d="M0,0C0.99,0.33 1.98,0.66 3,1C3.372,2.323 3.706,3.657 4,5C4.66,5.33 5.32,5.66 6,6L3,6C2.67,6.99 2.34,7.98 2,9C0.438,6.188 0.438,6.188 -1,3C-0.67,2.01 -0.34,1.02 0,0Z" style="fill:rgb(121,49,28);fill-rule:nonzero;"/>
    </g>
    <g transform="matrix(1,0,0,1,152,148)">
        <path d="M0,0C-0.33,0.99 -0.66,1.98 -1,3C-5.455,3.495 -5.455,3.495 -10,4C-10.33,3.34 -10.66,2.68 -11,2C-7.177,0.577 -4.087,-0.24 0,0Z" style="fill:rgb(242,141,112);fill-rule:nonzero;"/>
    </g>
    <g transform="matrix(1,0,0,1,157.562,59.9375)">
        <path d="M0,0C1.207,0.031 1.207,0.031 2.438,0.063L2.438,2.063C1.448,2.558 1.448,2.558 0.438,3.063C1.098,3.723 1.758,4.383 2.438,5.063C0.128,5.393 -2.183,5.723 -4.563,6.063C-3.49,0.085 -3.49,0.085 0,0Z" style="fill:rgb(208,201,199);fill-rule:nonzero;"/>
    </g>
    <g transform="matrix(1,0,0,1,163.125,30.875)">
        <path d="M0,0C0.949,0.041 1.898,0.083 2.875,0.125C0.208,2.792 -2.458,5.458 -5.125,8.125C-5.25,5.25 -5.25,5.25 -5.125,2.125C-3.125,0.125 -3.125,0.125 0,0Z" style="fill:rgb(250,233,210);fill-rule:nonzero;"/>
    </g>
    <g transform="matrix(1,0,0,1,114,229)">
        <path d="M0,0C2.31,0.66 4.62,1.32 7,2C3.788,3.906 1.461,4.223 -2.25,4.125C-3.142,4.107 -4.034,4.089 -4.953,4.07C-5.966,4.036 -5.966,4.036 -7,4L-7,3C-6.216,2.876 -5.433,2.753 -4.625,2.625C-1.859,2.209 -1.859,2.209 0,0Z" style="fill:rgb(114,49,30);fill-rule:nonzero;"/>
    </g>
    <g transform="matrix(1,0,0,1,187,174)">
        <path d="M0,0L1,0L1,9C-0.65,8.67 -2.3,8.34 -4,8L-4,5L0,5L0,0Z" style="fill:rgb(232,157,128);fill-rule:nonzero;"/>
    </g>
    <g transform="matrix(1,0,0,1,187,165)">
        <path d="M0,0C0.99,0.33 1.98,0.66 3,1C4.429,9.571 4.429,9.571 2,13L1,13C1.012,12.313 1.023,11.626 1.035,10.918C1.044,10.017 1.053,9.116 1.063,8.188C1.074,7.294 1.086,6.401 1.098,5.48C1.11,2.866 1.11,2.866 0,0Z" style="fill:rgb(150,42,13);fill-rule:nonzero;"/>
    </g>
    <g transform="matrix(1,0,0,1,169,40)">
        <path d="M0,0C0.66,0.66 1.32,1.32 2,2C-1.85,4.567 -3.586,3.833 -8,3L-8,1C-1.945,0.023 -1.945,0.023 0,0Z" style="fill:rgb(247,225,203);fill-rule:nonzero;"/>
    </g>
    <g transform="matrix(1,0,0,1,176,201)">
        <path d="M0,0C0.66,1.32 1.32,2.64 2,4L5,4C4.67,5.65 4.34,7.3 4,9L1,9C0.67,6.03 0.34,3.06 0,0Z" style="fill:rgb(248,204,184);fill-rule:nonzero;"/>
    </g>
    <g transform="matrix(1,0,0,1,188,187)">
        <path d="M0,0C0.99,0.33 1.98,0.66 3,1C2.34,5.95 1.68,10.9 1,16L0,16C-0.196,14.084 -0.381,12.167 -0.563,10.25C-0.667,9.183 -0.771,8.115 -0.879,7.016C-0.986,4.359 -0.819,2.5 0,0Z" style="fill:rgb(202,102,70);fill-rule:nonzero;"/>
    </g>
    <g transform="matrix(1,0,0,1,133,148)">
        <path d="M0,0C1.65,0.33 3.3,0.66 5,1L5,5C6.32,5.33 7.64,5.66 9,6C4.551,6.393 1.858,5.153 -2,3C-1.34,2.67 -0.68,2.34 0,2L0,0Z" style="fill:rgb(163,77,51);fill-rule:nonzero;"/>
    </g>
    <g transform="matrix(1,0,0,1,167,194)">
        <path d="M0,0C7.385,-0.369 7.385,-0.369 10.5,1.5C10.995,1.995 11.49,2.49 12,3C10.563,3.027 9.125,3.046 7.688,3.063C6.487,3.08 6.487,3.08 5.262,3.098C3,3 3,3 0,2L0,0Z" style="fill:rgb(243,218,208);fill-rule:nonzero;"/>
    </g>
    <g transform="matrix(1,0,0,1,148,152)">
        <path d="M0,0C1.749,-0.081 3.5,-0.139 5.25,-0.188C6.225,-0.222 7.199,-0.257 8.203,-0.293C11.375,0.039 12.67,0.887 15,3L6,3L6,2C3.03,1.505 3.03,1.505 0,1L0,0Z" style="fill:rgb(158,72,46);fill-rule:nonzero;"/>
    </g>
    <g transform="matrix(1,0,0,1,61,139)">
        <path d="M0,0L1,0L1,7C-0.98,7.99 -0.98,7.99 -3,9C-2.25,2.25 -2.25,2.25 0,0Z" style="fill:rgb(148,61,35);fill-rule:nonzero;"/>
    </g>
    <g transform="matrix(1,0,0,1,123,93.3125)">
        <path d="M0,0C2,0.688 2,0.688 4,2.688C1.03,3.348 -1.94,4.008 -5,4.688C-4.67,3.368 -4.34,2.047 -4,0.688C-2,-0.313 -2,-0.313 0,0Z" style="fill:rgb(83,64,58);fill-rule:nonzero;"/>
    </g>
    <g transform="matrix(1,0,0,1,87,84)">
        <path d="M0,0C3.465,1.485 3.465,1.485 7,3C6.67,3.99 6.34,4.98 6,6C2.73,5.436 1.174,4.5 -1,2C-0.67,1.34 -0.34,0.68 0,0Z" style="fill:rgb(85,70,64);fill-rule:nonzero;"/>
    </g>
    <g transform="matrix(1,0,0,1,134,188)">
        <path d="M0,0L4,0C4.33,0.66 4.66,1.32 5,2C5.99,2.66 6.98,3.32 8,4C5.353,5.461 4.106,6 1,6L1,3L3,3L3,1C2.01,0.67 1.02,0.34 0,0Z" style="fill:rgb(208,125,95);fill-rule:nonzero;"/>
    </g>
    <g transform="matrix(1,0,0,1,70,122)">
        <path d="M0,0C0.66,0.33 1.32,0.66 2,1C-0.234,4.351 -1.262,5.816 -5.25,6.813C-6.611,6.905 -6.611,6.905 -8,7C-5.422,4.352 -3.084,2.056 0,0Z" style="fill:rgb(133,183,171);fill-rule:nonzero;"/>
    </g>
    <g transform="matrix(1,0,0,1,110,186)">
        <path d="M0,0C-2.332,1.206 -4.496,2.165 -7,3C-7.66,3.66 -8.32,4.32 -9,5C-9.66,4.67 -10.32,4.34 -11,4L-11,1C-7.266,0.121 -3.832,-0.089 0,0Z" style="fill:rgb(222,195,186);fill-rule:nonzero;"/>
    </g>
    <g transform="matrix(1,0,0,1,122,183)">
        <path d="M0,0C6.523,-0.369 6.523,-0.369 8.938,1.5C9.288,1.995 9.639,2.49 10,3C6.675,4.108 4.378,3.845 1,3C0.67,2.01 0.34,1.02 0,0Z" style="fill:rgb(123,58,37);fill-rule:nonzero;"/>
    </g>
    <g transform="matrix(1,0,0,1,156,97)">
        <path d="M0,0L1,0C1.33,3.63 1.66,7.26 2,11C1.34,10.01 0.68,9.02 0,8C-0.66,8.66 -1.32,9.32 -2,10C-2.179,6.053 -2.094,3.402 0,0Z" style="fill:rgb(171,73,44);fill-rule:nonzero;"/>
    </g>
    <g transform="matrix(1,0,0,1,118,164)">
        <path d="M0,0C-1.393,3.367 -2.979,4.986 -6,7C-6.33,5.68 -6.66,4.36 -7,3C-2.25,0 -2.25,0 0,0Z" style="fill:rgb(161,77,52);fill-rule:nonzero;"/>
    </g>
    <g transform="matrix(1,0,0,1,69,159)">
        <path d="M0,0C2.97,0.33 5.94,0.66 9,1L9,3L0,3L0,0Z" style="fill:rgb(147,59,34);fill-rule:nonzero;"/>
    </g>
    <g transform="matrix(1,0,0,1,143,197)">
        <path d="M0,0C2,2 2,2 2,6L-1,6C-1.33,5.34 -1.66,4.68 -2,4C-2.66,3.67 -3.32,3.34 -4,3C-2.68,2.01 -1.36,1.02 0,0Z" style="fill:rgb(227,134,97);fill-rule:nonzero;"/>
    </g>
    <g transform="matrix(1,0,0,1,176,186)">
        <path d="M0,0L11,0L11,1C8.69,1.33 6.38,1.66 4,2L4,5C2.646,3.688 1.313,2.354 0,1L0,0Z" style="fill:rgb(229,210,204);fill-rule:nonzero;"/>
    </g>
    <g transform="matrix(1,0,0,1,74,137)">
        <path d="M0,0L2,0C2.33,2.64 2.66,5.28 3,8C2.01,7.67 1.02,7.34 0,7L0,0Z" style="fill:rgb(124,102,94);fill-rule:nonzero;"/>
    </g>
    <g transform="matrix(1,0,0,1,83,200)">
        <path d="M0,0C0.66,0.33 1.32,0.66 2,1L2,4C3.32,3.67 4.64,3.34 6,3C6.33,3.66 6.66,4.32 7,5C1.462,5.369 1.462,5.369 -0.875,3.5C-1.246,3.005 -1.618,2.51 -2,2C-1.34,1.34 -0.68,0.68 0,0Z" style="fill:rgb(229,237,241);fill-rule:nonzero;"/>
    </g>
    <g transform="matrix(1,0,0,1,177,179)">
        <path d="M0,0L6,0L6,3L-1,3C-0.67,2.01 -0.34,1.02 0,0Z" style="fill:rgb(250,178,146);fill-rule:nonzero;"/>
    </g>
    <g transform="matrix(1,0,0,1,99,159)">
        <path d="M0,0C2,1 2,1 3,3C2.361,3.124 1.721,3.248 1.063,3.375C0.382,3.581 -0.299,3.788 -1,4C-1.33,4.66 -1.66,5.32 -2,6C-2.33,4.68 -2.66,3.36 -3,2C-2.01,1.34 -1.02,0.68 0,0Z" style="fill:rgb(246,144,114);fill-rule:nonzero;"/>
    </g>
    <g transform="matrix(1,0,0,1,79,122)">
        <path d="M0,0C2,2 2,2 2,5C0.68,4.34 -0.64,3.68 -2,3C-1,1 -1,1 0,0ZM-4,2C-3.01,2.495 -3.01,2.495 -2,3C-2.33,3.66 -2.66,4.32 -3,5C-3.33,4.01 -3.66,3.02 -4,2ZM-6,4L-4,5L-6,4Z" style="fill:rgb(161,221,206);fill-rule:nonzero;"/>
    </g>
    <g transform="matrix(1,0,0,1,131,92)">
        <path d="M0,0L0,2C-2.31,2.33 -4.62,2.66 -7,3C-6.67,2.01 -6.34,1.02 -6,0C-3.425,-0.997 -2.511,-1.255 0,0Z" style="fill:rgb(72,52,45);fill-rule:nonzero;"/>
    </g>
    <g transform="matrix(1,0,0,1,147,67)">
        <path d="M0,0L2,0C1.427,2.867 1.139,3.861 -1,6C-1.99,5.67 -2.98,5.34 -4,5C-2.719,3.293 -1.382,1.626 0,0Z" style="fill:rgb(2,1,1);fill-rule:nonzero;"/>
    </g>
    <g transform="matrix(1,0,0,1,98,187)">
        <path d="M0,0C0.33,0.99 0.66,1.98 1,3C3,4.209 3,4.209 5,5L5,7C1.125,6.125 1.125,6.125 0,5C-0.041,3.334 -0.043,1.666 0,0Z" style="fill:rgb(214,118,83);fill-rule:nonzero;"/>
    </g>
    <g transform="matrix(1,0,0,1,138,187)">
        <path d="M0,0C2.475,0.495 2.475,0.495 5,1L5,4C3.35,3.67 1.7,3.34 0,3L0,0Z" style="fill:rgb(116,42,21);fill-rule:nonzero;"/>
    </g>
    <g transform="matrix(1,0,0,1,174,149)">
        <path d="M0,0C-2.052,2.248 -3.007,3.002 -6,4L-6,0C-3.509,-1.245 -2.589,-0.777 0,0Z" style="fill:rgb(156,66,40);fill-rule:nonzero;"/>
    </g>
    <g transform="matrix(1,0,0,1,155,104)">
        <path d="M0,0C2,1 2,1 2.75,2.813C3.057,5.498 2.381,6.725 1,9L0,9L0,0Z" style="fill:rgb(144,57,32);fill-rule:nonzero;"/>
    </g>
</svg>
